<?xml version="1.0" encoding="utf-8"?>
<!-- Generator: Adobe Illustrator 16.0.0, SVG Export Plug-In . SVG Version: 6.00 Build 0)  -->
<!DOCTYPE svg PUBLIC "-//W3C//DTD SVG 1.1//EN" "http://www.w3.org/Graphics/SVG/1.1/DTD/svg11.dtd">
<svg version="1.1" id="Layer_1" xmlns="http://www.w3.org/2000/svg" xmlns:xlink="http://www.w3.org/1999/xlink" x="0px" y="0px"
	 width="290px" height="180px" viewBox="0 0 290 180" enable-background="new 0 0 290 180" xml:space="preserve">
<path d="M177.247,87.868c-4.901,0-9.615,0.825-14.011,2.341c-2.92-6.476-6.273-13.923-10.125-22.497l2.757-7.583l9.479-0.173
	l-0.347-7.928h-35.333c-3.121,4.271,1.265,4.252,17.062,7.756l-2.756,7.756L73.48,67.712c4.75-16.584,2.069-15.55,23.441-15.513
	l0.172-8.101c-28.943,0.283-24.646-2.921-39.497,45.221c-2.652-0.513-5.39-0.784-8.189-0.784c-23.742,0-43.058,19.314-43.058,43.058
	c0,23.742,19.316,43.06,43.058,43.06c23.743,0,43.058-19.315,43.058-43.06c0-17.851-10.918-33.196-26.428-39.715
	c0.659-2.064,1.351-4.224,2.08-6.489c57.926,61.105,38.038,52.841,66.833,53.609c3.789,19.896,21.312,34.986,42.296,34.986
	c23.742,0,43.059-19.316,43.059-43.061S200.99,87.868,177.247,87.868z M77.939,131.593c0,15.732-12.799,28.531-28.531,28.531
	c-15.732,0-28.531-12.799-28.531-28.531c0-15.731,12.799-28.53,28.531-28.53c1.279,0,2.535,0.092,3.769,0.256
	c-9.054,28.562-7.933,25.271-7.993,27.83c-0.048,2.221,1.744,3.979,3.994,4.129c3.934-0.396,3.173,0.227,12.456-29.457
	C71.266,110.406,77.939,120.234,77.939,131.593z M120.489,129.66L71.444,76.213l68.98-0.122L120.489,129.66z M129.173,130.762
	l19.569-51.369l6.547,14.507c-12.583,7.492-21.044,21.211-21.099,36.875L129.173,130.762z M161.32,107.266l10.658,23.618
	l-23.263-0.065C148.755,121.023,153.75,112.376,161.32,107.266z M177.247,159.458c-12.917,0-23.851-8.633-27.353-20.427
	c29.855,0.109,32.592,1.525,33.032-3.928c-0.044-1.593-0.622-2.695-13.672-31.562c2.537-0.741,5.22-1.146,7.99-1.146
	c15.731,0,28.53,12.799,28.53,28.531S192.98,159.458,177.247,159.458z"/>
</svg>
