<?xml version="1.0" encoding="utf-8"?>
<!-- Generator: Adobe Illustrator 16.0.0, SVG Export Plug-In . SVG Version: 6.00 Build 0)  -->
<!DOCTYPE svg PUBLIC "-//W3C//DTD SVG 1.1//EN" "http://www.w3.org/Graphics/SVG/1.1/DTD/svg11.dtd">
<svg version="1.1" id="Layer_1" xmlns="http://www.w3.org/2000/svg" xmlns:xlink="http://www.w3.org/1999/xlink" x="0px" y="0px"
	 width="50px" height="50px" viewBox="0 0 50 50" enable-background="new 0 0 50 50" xml:space="preserve">
<g>
	<path d="M31.235,27.084h-12.22c-1.147,0-2.079,1.992-2.079,3.127c0,1.123,0.931,3.123,2.079,3.123h12.22
		c1.135,0,2.068-2,2.068-3.123C33.302,29.077,32.37,27.084,31.235,27.084z"/>
	<path d="M43.75,0H6.25C2.812,0,0,2.812,0,6.25v37.501c0,3.439,2.812,6.25,6.25,6.25H43.75c3.439,0,6.25-2.812,6.25-6.25V6.25
		C50,2.812,47.188,0,43.75,0z M41.67,29.998h-0.004c-0.037,5.958-4.035,11.67-10,11.67H18.336c-5.969,0-10.002-5.713-10.002-11.67
		v-13.33c0-5.969,4.033-10.417,10.002-10.417h8.333c2.8,0,6.665,2.917,8.171,6.104c0.411,0.896,0.631,0.964,0.977,3.618
		c0.183,1.363,0.276,2.376,0.883,2.936c0.865,0.781,3.471,0.633,4.102,1.125l0.476,0.378l0.287,0.598l0.106,0.655V29.998z"/>
	<path d="M19.015,20.834h6.011c1.147,0,2.079-0.95,2.079-2.087c0-1.136-0.932-2.079-2.079-2.079h-6.011
		c-1.147,0-2.079,0.944-2.079,2.079C16.936,19.885,17.867,20.834,19.015,20.834z"/>
</g>
</svg>
