<?xml version="1.0" encoding="utf-8"?>
<!-- Generator: Adobe Illustrator 16.0.0, SVG Export Plug-In . SVG Version: 6.00 Build 0)  -->
<!DOCTYPE svg PUBLIC "-//W3C//DTD SVG 1.1//EN" "http://www.w3.org/Graphics/SVG/1.1/DTD/svg11.dtd">
<svg version="1.1" id="Layer_1" xmlns="http://www.w3.org/2000/svg" xmlns:xlink="http://www.w3.org/1999/xlink" x="0px" y="0px"
	 width="290px" height="180px" viewBox="0 0 290 180" enable-background="new 0 0 290 180" xml:space="preserve">
<g>
	<path d="M97.833,52.634l0.263,0.79c-4.061,2.346-4.119,6.717-5.267,11.062c1.772-3.846,3.812-7.424,5.793-11.062l0.79-0.264
		l-0.263-0.791c0.352,0,0.703,0,1.054,0c1.501-1.835,2.745-3.927,5.268-4.74c-0.052-3.04,1.829-3.792,4.214-5.794
		c3.639-3.055,6.202-5.353,10.008-3.16c1.046-0.007,0.669-1.438,2.107-1.054c1.214-0.161,0.584,1.521,1.58,1.58
		c-0.147-1.2,0.127-1.979,1.053-2.106c1.049,0.53,1.202,1.957,2.107,2.633c0.099-1.481,0.916-2.244,2.634-2.107
		c0.909,0.32-0.041,2.499,1.054,2.634c2.231-2.499,3.861,0.134,7.374-1.58c0.729,0.324,0.079,2.027,1.054,2.107
		c3.184-2.082,7.622,2.038,11.062,1.053c1.291,0.701-0.95,1.59,0.526,2.106c0.882-0.698,1.765-1.395,3.688-1.053
		c0.082,0.62-0.091,1.496,0.526,1.581c2.512-0.117,5.672,3.374,6.848,6.32c1.488-0.436,1.363,0.743,2.634,0.527
		c1.27,2.671,1.932,3.216,3.159,6.321c2.642,0.183,2.557-2.36,3.688-3.688c7.826-2.531,12.474-8.244,21.068-10.008
		c2.197,1.492,5.277,2.098,8.955,2.108c0.945,2.139,3.559,4.554,5.793,4.74c-0.216,1.269,0.962,1.145,0.527,2.634
		c1.603-0.023,2.049,1.112,3.16,1.58c3.175,5.956,7.807,10.453,12.641,14.749c0,0.702,0,1.405,0,2.107
		c2.438,1.031,4.565,4.13,3.687,6.844c2.255,1.937,1.668,4.982,2.634,8.955c-0.007,0.697-0.925,0.481-1.054,1.053
		c0.755,0.65,0.998,1.811,1.054,3.161c-2.438,4.58-3.645,10.639-1.581,14.749c-4.426,7.84,4.242,13.698,3.688,22.649
		c-1.814,1.347-4.085,2.235-5.795,3.686c-2.117-0.58-2.086-2.14-4.74-1.053c-3.082-3.204-7.438-3.938-10.535-6.847
		c-1.528-1.437-1.878-3.697-3.159-5.794c-0.634-1.035-2.178-1.688-2.634-2.634c-0.482-0.998-0.041-1.834-0.527-2.634
		c-0.724-1.19-2.171-1.67-2.633-2.634c-1.334-2.785-0.933-5.093-3.159-6.32c0.822-5.213-2.516-6.265-4.215-8.954
		c0.336-1.913,2.462,1.222,2.634-0.526c-2.612-6.596-1.145-19.919-8.428-20.542c-2.479-0.212-4.375,2.175-6.848,3.16
		c0.634,2.029,2.524,1.845,3.688,3.161c4.383,4.955,5.452,14.149,8.953,18.435c0,1.055,0,2.107,0,3.161
		c5.063,11.708,15.231,19.089,16.854,32.655c0.208,1.736-0.396,3.139,0,4.742c0.369,1.486,1.774,3.086,2.107,4.74
		c0.293,1.449-0.355,3.464,0,5.267c0.595,3.02,2.319,5.229,1.054,6.848c-0.05-1.002-2.057,0.326-2.106,1.052
		c2.684,1.579-0.718,3.024-1.58,4.217c0.878,0,1.756,0,2.633,0c-2.873,7.59-19.404,10.315-20.541,1.579
		c-0.508-3.907,1.672-4.526,3.16-7.375c1.159-0.771,3.926,0.063,4.214-1.58c-0.497-6.95-3.837-13.021-3.16-19.489
		c-1.681,0.452-1.629-0.827-2.634-1.053c0.381-1.609-0.538-1.92-0.526-3.16c-7.542-6.502-16.223-11.869-27.389-14.748
		c0.038,0.918-0.118,1.638-0.528,2.106c-4.426,3.125-7.635,7.468-11.587,11.062c-1.489,5.534-1.602,12.445-4.741,16.329
		c-4.396,1.573-6.698,5.239-12.114,5.794c-2.185,3.959-8.988,3.302-11.062,7.373c-4.16,1.939-6.794-2.655-11.061-0.526
		c-1.153-2.887-4.457-3.619-5.794-6.32c-0.301,1.454-0.558,2.954-2.634,2.633c-0.583-2.324-0.522-2.774,0.527-4.74
		c-0.692,0.677-1.942,0.677-2.633,0c-0.494-3.156,1.771-7.39,1.053-11.061c4.14-3.483,12.546-0.732,14.749,2.634
		c0.246,2.072-1.104,2.735,0.527,3.686c9.249-4.63,16.031-7.292,15.802-17.38c-0.259-11.396-1.911-23.952-1.053-35.291
		c-4.352-1.093-5.977-4.91-11.588-4.741c-1.924,3.132-7.963,3.271-6.847,7.901c-0.923,0.48-2.628,0.182-3.16,1.053
		c0.427,2.043-1.662,2.74-2.634,4.215c-0.244,0.37,0.692,0.798,0.527,1.053c-0.276,0.428-1.205,0.184-1.581,0.527
		c-0.527,0.483-0.045,1.556-0.527,2.106c-0.968,1.105-3.148,3.153-3.159,3.16c-0.815,0.496-1.29,0.108-2.107,0
		c-0.048,1.437,0.877,1.061,0,2.107c-1.681,0.312-1.629-0.989-2.634,0c0.42,0.983,0.88,1.928,1.053,3.159
		c-0.937,1.697-2.138,3.131-2.107,5.795c-5.675,4.34-6.854,10.974-10.534,17.908c-2.255,1.433-4.661,2.713-6.847,4.214
		c2.507,0.251-0.634,2.482,0,4.214c-0.623,0.781-1.99,0.819-2.633,1.581c-3.381,5.397-7.975,9.584-11.061,15.276
		c-2.843,2.072-6.088,3.742-8.428,6.319c-0.388,2.42-1.505,4.111-3.688,4.74c-1.911-0.12-3.353-2.583-4.74-1.58
		c0.047,1.967,0.591,1.5,0,3.16c-2.979,0.696-2.616-1.95-4.214-2.634c0.095,1.15-0.431,1.676-1.58,1.581
		c-4.242-3.821-9.794-6.731-8.427-12.115c0.478-1.885,3.879-4.507,6.32-4.74c2.646-0.254,4.956,2.521,7.901,2.106
		c3.101-0.436,5.68-4.596,6.321-6.847c7.103-5.539,10.43-14.854,12.641-25.283c-6.673,1.991-9.603,4.359-14.747,3.687
		c-0.917-0.119-5.294-1.743-5.794-2.106c-4.906-3.563-12.406-8.019-16.854-11.588c-1.665-1.335-9.495-7.423-10.007-7.374
		c-1.328,0.126-2.315,3.345-3.161,3.16c0.427,1.855,2.121,2.444,2.107,4.74c-2.97,1.872-4.583-1.578-5.267-3.688
		c-0.128,1.416-0.276,5.629-2.634,4.215c0.893-0.794-1.085-1.528-1.581-3.161c-0.406-1.342,1.069-4.264-1.053-4.214
		c-1.076,1.381-0.655,4.261-3.16,4.214c-0.779-0.274-1.327-0.779-2.107-1.054c-0.286-4.324,3.81-4.266,3.687-8.427
		c-2.162-0.056-2.108,2.105-4.74,1.58c-2.202-4.543,4.389-6.503,6.848-7.901c2.124-1.208,3.245-2.867,4.74-3.16
		c6.687-1.309,10.098,2.038,13.168,3.688c4.413,2.37,9.419,5.619,13.694,7.374c8.686,3.568,17.226,5.638,21.596-2.106
		c-4.109-2.242-3.934-10.881-10.008-9.48c-2.932-6.023-7.317-10.592-13.695-13.168c-0.094-1.85,1.779-1.732,2.107-3.16
		c-0.779-0.273-1.328-0.78-2.107-1.053c3.018-3.786,1.015-2.688-0.527-6.32c-0.555-1.96,1.775-1.034,2.106-2.108
		c-1.996-2.022,1.795-8.563,5.795-6.32c-0.474-2.579,1.739-2.473,1.053-5.267c2.724-1.117,2.013-4.667,3.16-6.848
		c1.619-3.079,9.358-9.267,13.168-9.48c1.582-0.089,3.086,0.674,4.739,1.053c-0.02,3.668-4.194,3.18-4.214,6.848
		c2.621-0.081,2.086-0.263,3.688-1.58c0.725,1.558,0.558,4.006,2.108,4.74c2.906,0.636,3.241-1.702,5.793-2.633
		c0.458,2.024,1.227,1.275,3.16,1.054c0.072,0.98,0.346,1.76,1.053,2.107c4.543-0.47,11.589-5.676,14.748-1.054L97.833,52.634z
		 M68.072,52.897c-0.295-1.525-0.821,0.808-1.58,0.528C67.007,55.17,67.532,52.836,68.072,52.897z M59.644,55.532
		c-0.572,0.13-0.358,1.047-1.053,1.053C58.817,58.043,60.248,56.612,59.644,55.532z M67.019,58.691
		c-0.476-1.426-1.179,1.206-2.106,1.054C65.271,61.055,66.516,58.967,67.019,58.691z M58.063,70.807
		c0.923,0.768,4.053,0.55,4.214-1.053c-0.661-0.116-1.077-0.82-1.053,0.526c-1.096-2.065,0.02-6.34-2.107-7.374
		c-2.631-0.988-3.232,4.867-4.214,2.106c-1.011,1.221,0.266,7.427,1.581,6.321l0.964,0.264L58.063,70.807z M64.912,63.959
		c-0.202-1.002-0.671,0.336-0.527,1.053C64.585,66.015,65.056,64.677,64.912,63.959z M76.411,75.811l0.614-0.791
		c0.41,0.117,0.613,0.442,0.527,1.054c4.146-1.24,3.156-9.718-1.58-9.48c-0.003,1.642-4.194,4.357-2.106,5.792
		c-0.059,1.867-1.742-1.118-1.581,0.528c0.608,1.5,2.424,1.791,2.634,3.687c0.411-0.117,0.613-0.442,0.528-1.054L76.411,75.811z
		 M49.109,67.119c-1.693,1.558,2.218,1.966,2.107,3.688C52.707,69.452,49.307,68.533,49.109,67.119z M63.594,78.621l0.791,0.615
		c-0.477,0.301-1.939,2.172-2.107,1.053c-1.094,0.134-0.144,2.313-1.053,2.634c-1.386,0.155-0.415-2.044-2.107-1.582
		c-0.592,2.041-1.767,4.505-1.054,6.32c1.692,0.464,0.722-1.735,2.106-1.579c0.224,2.587,3.739,1.88,4.741,3.687
		c0.996-0.059,0.365-1.742,1.58-1.581c1.577,0.347-0.503,1.125,0,2.106c3.32-0.191,3.416-3.607,3.16-7.374
		c-1.437-0.384-1.061,1.046-2.107,1.054c-0.746-1.714-1.208-3.708-2.633-4.741l0.263-0.79l-0.263-0.791
		c0.806-0.76-0.646-3.742,2.106-3.687c0.376-1.43-2.484,0.377-2.106-1.053c-0.509,1.1-1.187,4.742-1.054,4.74L63.594,78.621z
		 M94.408,75.021c0.098-0.448-0.206-0.497-0.526-0.527c-0.351,0-0.704,0-1.054,0c-0.066,0.945,0.645,1.111,0.527,2.108
		C94.113,76.481,93.538,75.029,94.408,75.021z M93.354,80.814c-0.351,0-0.702,0-1.054,0c0,0.35,0,0.702,0,1.053
		c0.352,0,0.703,0,1.054,0C93.354,81.517,93.354,81.166,93.354,80.814z M76.5,91.876c-0.938,0.386-0.076,0.958,0,1.58
		C77.438,93.07,76.576,92.498,76.5,91.876z"/>
	<path d="M57.098,70.017l-0.615,0.79c-1.665-2.929,0.066-6.649,2.634-5.794c0.688,1.072-1.069,3.22-1.054,5.267L57.098,70.017z"/>
	<path d="M75.446,75.548c-1.195-0.561-0.201-3.312-0.527-4.742c0.533-0.872,2.237-0.572,3.161-1.053
		c-0.802,1.305-0.131,4.084-1.054,5.267l-0.966-0.263L75.446,75.548z"/>
	<g>
		<path d="M97.832,52.636c0.527,0.204,1.053,0.357,1.58,0.526"/>
		<path d="M57.099,70.017c0.137,0.526,0.239,1.052,0.351,1.58"/>
		<path d="M76.412,75.811c-0.117-0.352-0.234-0.702-0.351-1.053"/>
		<path d="M63.594,78.621c0.528-0.095,1.054-0.187,1.581-0.176"/>
	</g>
</g>
</svg>
