<?xml version="1.0" encoding="utf-8"?>
<!-- Generator: Adobe Illustrator 16.0.0, SVG Export Plug-In . SVG Version: 6.00 Build 0)  -->
<!DOCTYPE svg PUBLIC "-//W3C//DTD SVG 1.1//EN" "http://www.w3.org/Graphics/SVG/1.1/DTD/svg11.dtd">
<svg version="1.1" id="Layer_1" xmlns="http://www.w3.org/2000/svg" xmlns:xlink="http://www.w3.org/1999/xlink" x="0px" y="0px"
	 width="290px" height="180px" viewBox="0 0 290 180" enable-background="new 0 0 290 180" xml:space="preserve">
<g>
	<path d="M172.96,117.811c-0.264,0.817-0.536,1.632-0.789,2.452c-3.016,9.766-13.901,14.781-23.264,10.71
		c-0.666-0.289-1.295-0.664-2.188-1.126c3.061-3.054,6.022-5.886,8.812-8.877c0.729-0.783,1.277-2.058,1.3-3.118
		c0.124-5.795,0.06-11.594,0.06-17.392c0-0.732,0-1.465,0-2.362c3.37,0.095,6.186,1.208,8.743,3.008
		c3.56,2.506,5.812,5.931,6.88,10.145c0.112,0.439,0.297,0.861,0.447,1.292C172.96,114.298,172.96,116.055,172.96,117.811z"/>
	<path d="M30.699,166.852c-1.201-0.397-2.435-0.716-3.597-1.205c-6.571-2.758-10.383-7.725-10.896-14.8
		c-0.513-7.084,2.597-12.516,8.678-16.21c0.444-0.27,0.948-0.438,1.663-0.76c0,7.65,0,15.097,0,22.76c7.501,0,14.815,0,22.496,0
		c-2.329,4.798-5.758,7.766-10.423,9.371c-0.877,0.301-1.768,0.563-2.652,0.844C34.211,166.852,32.455,166.852,30.699,166.852z"/>
	<path d="M117.434,166.852c-2.336-0.985-4.785-1.77-6.978-3.009c-2.693-1.52-4.617-4.069-5.959-7.123
		c2.31,0,4.484,0.014,6.658-0.004c2.897-0.023,6.118,0.706,8.601-0.327c2.486-1.033,4.253-3.821,6.303-5.872
		c2.954-2.957,5.879-5.942,9.027-9.129c1.948,3.448,2.578,6.869,2.043,10.467c-1.116,7.513-6.118,12.852-13.532,14.619
		c-0.31,0.073-0.596,0.249-0.894,0.378C120.946,166.852,119.189,166.852,117.434,166.852z"/>
	<path d="M156.928,48.555c0-7.371,0-14.559,0-21.994c-6.878,0-13.578,0-20.294,0c0.432-5.691,8.229-11.516,15.327-11.683
		c9.03-0.212,16.509,6.271,17.665,15.315C170.663,38.31,164.95,46.771,156.928,48.555z"/>
	<path d="M38.534,51.624c-3.663,3.66-7.234,7.144-10.682,10.747c-0.654,0.684-1.138,1.833-1.154,2.777
		c-0.103,6.003-0.052,12.01-0.052,18.024c-5.552-0.47-11.165-5.531-13.017-11.643c-2.044-6.745,0.176-13.954,5.667-18.402
		C24.708,48.741,32.264,48.083,38.534,51.624z"/>
	<path d="M82.045,26.481c-3.804,0-7.262,0.343-10.626-0.077c-5.59-0.697-9.8,1.013-13.271,5.479c-2.212,2.845-5.059,5.196-7.8,7.948
		c-2.842-6.555-2.384-12.511,1.646-18.04c4.114-5.644,11.271-8.167,17.97-6.39C75.73,16.932,79.676,20.546,82.045,26.481z"/>
	<path d="M99.864,63.498c1.356-6.05,4.601-10.271,10.018-12.679c5.346-2.376,10.583-1.93,15.898,0.995
		c-3.834,3.842-7.482,7.522-11.174,11.156c-0.332,0.327-0.952,0.501-1.44,0.505C108.851,63.514,104.535,63.498,99.864,63.498z"/>
	<path d="M119.869,83.5c0-4.688-0.015-9.134,0.024-13.581c0.004-0.413,0.252-0.919,0.55-1.221c3.6-3.645,7.23-7.26,11.045-11.075
		c2.985,5.061,3.388,10.167,1.264,15.371C130.426,78.692,126.088,82.098,119.869,83.5z"/>
	<path d="M59.663,129.421c3.119-3.11,6.117-6.111,9.135-9.092c0.27-0.267,0.671-0.567,1.013-0.569
		c5.168-0.037,10.337-0.025,15.545-0.025C83.26,130.073,69.537,136.371,59.663,129.421z"/>
	<path d="M63.659,99.033c0,4.871,0.01,9.573-0.019,14.274c-0.002,0.362-0.184,0.815-0.438,1.072
		c-3.022,3.052-6.075,6.074-9.144,9.13C48.643,114.463,53.687,101.396,63.659,99.033z"/>
	<path d="M85.701,111.587c-4.37,0-8.6,0.032-12.827-0.058c-0.375-0.008-1.037-0.813-1.047-1.26
		c-0.083-3.897-0.048-7.798-0.048-11.689C77.821,98.374,84.802,105.146,85.701,111.587z"/>
	<path d="M82.547,34.608c-0.185,5.553-5.161,11.749-10.751,13.382c0-4.219-0.018-8.368,0.039-12.516
		c0.003-0.292,0.555-0.823,0.859-0.829C75.977,34.585,79.262,34.608,82.547,34.608z"/>
	<path d="M34.811,82.937c0-3.755,0-7.386,0-11.174c3.82,0,7.625,0,11.421,0C45.593,76.392,40.408,81.578,34.811,82.937z"/>
	<path d="M111.652,148.527c-2.976,0-5.782,0-8.584,0c-0.157-5.32,3.909-11.787,8.584-13.616
		C111.652,139.418,111.652,143.885,111.652,148.527z"/>
	<path d="M100.354,71.668c3.898,0,7.517,0,11.27,0c0,3.726,0,7.393,0,11.271C106.085,81.044,102.447,77.371,100.354,71.668z"/>
	<path d="M138.926,111.469c1.42-5.562,4.526-9.451,9.717-11.947c0,4.114,0,7.978,0,11.947
		C145.379,111.469,142.257,111.469,138.926,111.469z"/>
	<path d="M119.973,144.643c0-4.034,0-8.063,0-12.204c3.577-0.042,6.694,0.978,9.444,2.736
		C126.232,138.368,123.115,141.491,119.973,144.643z"/>
	<path d="M63.461,49.445c-2.692-1.038-5.183-1.998-7.576-2.92c2.712-2.743,5.182-5.24,7.576-7.661
		C63.461,41.963,63.461,45.429,63.461,49.445z"/>
	<path d="M42.451,134.695c-2.698,2.696-5.116,5.111-7.531,7.525c0-3.059,0-6.296,0-10.01
		C37.494,133.061,39.954,133.871,42.451,134.695z"/>
	<path d="M48.671,141.455c0.634,2.064,1.35,4.396,2.146,6.99c-3.482,0-6.594,0-9.146,0C43.71,146.409,46.08,144.044,48.671,141.455z
		"/>
	<path d="M44.86,57.392c0.747,1.902,1.513,3.852,2.361,6.011c-3.118,0-5.839,0-8.552,0C40.662,61.467,42.612,59.575,44.86,57.392z"
		/>
	<path d="M142.971,46.623c1.96-1.994,3.737-3.802,5.607-5.704c0,2.52,0,5.074,0,8.056C146.624,48.156,144.776,47.38,142.971,46.623z
		"/>
	<path d="M137.014,39.804c-0.484-1.474-1.035-3.149-1.665-5.065c2.575,0,4.803,0,7.26,0
		C140.718,36.45,138.969,38.035,137.014,39.804z"/>
	<path d="M144.815,119.925c-1.279,1.298-2.521,2.558-3.957,4.015c-0.555-1.242-1.107-2.478-1.795-4.015
		C141.147,119.925,142.94,119.925,144.815,119.925z"/>
</g>
</svg>
