<?xml version="1.0" encoding="utf-8"?>
<!-- Generator: Adobe Illustrator 16.0.0, SVG Export Plug-In . SVG Version: 6.00 Build 0)  -->
<!DOCTYPE svg PUBLIC "-//W3C//DTD SVG 1.1//EN" "http://www.w3.org/Graphics/SVG/1.1/DTD/svg11.dtd">
<svg version="1.1" id="Layer_1" xmlns="http://www.w3.org/2000/svg" xmlns:xlink="http://www.w3.org/1999/xlink" x="0px" y="0px"
	 width="50px" height="50px" viewBox="0 0 50 50" enable-background="new 0 0 50 50" xml:space="preserve">
<path d="M43.75,0H6.25C2.8,0,0,2.8,0,6.25v37.5C0,47.2,2.8,50,6.25,50h37.5C47.2,50,50,47.2,50,43.75V6.25C50,2.8,47.2,0,43.75,0z
	 M5.966,14.392l10.827-6.836l7.108,6.015l-10.827,7.003L5.966,14.392z M13.103,21.558l10.547,6.815l-7.101,5.697L6.45,27.58
	L13.103,21.558z M25,44.527l-12.5-8.114V33.02l4.565,2.995L25,29.374V44.527z M27.128,44.501l-0.045-15.127l6.283,6.701l4.01-2.783
	l0.126,3.036L27.128,44.501z M33.264,33.842l-5.558-5.606l9.021-6.462l6.58,5.624L33.264,33.842z M36.675,20.624l-10.91-7.083
	l7.162-6.042l11.019,6.836L36.675,20.624z"/>
</svg>
