<?xml version="1.0" encoding="utf-8"?>
<!-- Generator: Adobe Illustrator 16.0.0, SVG Export Plug-In . SVG Version: 6.00 Build 0)  -->
<!DOCTYPE svg PUBLIC "-//W3C//DTD SVG 1.1//EN" "http://www.w3.org/Graphics/SVG/1.1/DTD/svg11.dtd">
<svg version="1.1" id="Layer_1" xmlns="http://www.w3.org/2000/svg" xmlns:xlink="http://www.w3.org/1999/xlink" x="0px" y="0px"
	 width="50px" height="50px" viewBox="0 0 50 50" enable-background="new 0 0 50 50" xml:space="preserve">
<path d="M44.25,0H6.75C3.316,0,0.5,2.813,0.5,6.25v37.5C0.5,47.188,3.315,50,6.75,50h37.5c3.438,0,6.25-2.812,6.25-6.25V6.25
	C50.5,2.813,47.688,0,44.25,0z M31.844,25h-4.26c0,6.249,0,14.583,0,14.583h-6.25c0,0,0-8.334,0-14.583h-2.083v-6.25h2.083v-2.348
	c0-2.421,0.977-6.206,6.034-6.206l4.382,0.019v4.369c0,0-2.214,0-2.755,0c-0.537,0-1.412,0.977-1.412,2.128v2.038h4.797L31.844,25z"
	/>
</svg>
