<?xml version="1.0" encoding="utf-8"?>
<!-- Generator: Adobe Illustrator 16.0.0, SVG Export Plug-In . SVG Version: 6.00 Build 0)  -->
<!DOCTYPE svg PUBLIC "-//W3C//DTD SVG 1.1//EN" "http://www.w3.org/Graphics/SVG/1.1/DTD/svg11.dtd">
<svg version="1.1" id="Layer_1" xmlns="http://www.w3.org/2000/svg" xmlns:xlink="http://www.w3.org/1999/xlink" x="0px" y="0px"
	 width="50px" height="50px" viewBox="0 0 50 50" enable-background="new 0 0 50 50" xml:space="preserve">
<g>
	<path d="M20.329,22.917c0.708,0,1.285-0.256,1.729-0.769c0.691-0.785,0.993-1.878,0.813-3.251
		c-0.313-2.427-2.059-4.313-3.882-4.313h-0.073c-0.659,0-1.245,0.089-1.692,0.598c-0.68,0.777-0.968,1.9-0.79,3.259
		c0.325,2.47,2.071,4.476,3.89,4.476C20.324,22.917,20.324,22.917,20.329,22.917z"/>
	<path d="M22.217,30.538l-0.521-0.735c-0.546-0.166-1.111-0.636-1.685-0.636h-0.073c-2.653,0-4.98,1.994-4.98,3.841
		c0,2.012,1.998,3.774,4.549,3.774c3.357,0,5.058-1.073,5.058-3.37c0-0.222-0.028-0.401-0.078-0.625
		C24.256,31.883,23.441,31.378,22.217,30.538z"/>
	<path d="M43.75,0H6.25C2.812,0,0,2.813,0,6.25v37.5C0,47.188,2.812,50,6.25,50h37.5c3.438,0,6.25-2.812,6.25-6.25V6.25
		C50,2.813,47.188,0,43.75,0z M19.499,39.718c-5.253,0-9.07-2.606-9.07-5.76c0-3.557,4-6.873,8.732-6.873c0.094,0,0.188,0,0.281,0
		c-0.354,0-0.533-0.859-0.533-1.481c0-0.368,0.065-0.606,0.188-0.997c-3.854-0.012-6.865-2.944-6.865-6.777
		c0-3.642,4.219-7.416,8.211-7.416H31.25l-3.824,2.083H25.55c0.231,0,1.729,2.409,1.534,5.554c-0.122,1.925-1.054,4.057-2.563,5.241
		c-1.327,1.029-1.379,1.3-1.379,1.91c0,0.372,0.985,1.436,1.953,2.119c2.291,1.616,3.142,3.199,3.142,5.855
		C28.235,36.43,25.236,39.718,19.499,39.718z M39.583,20.833h-4.167V25h-2.083v-4.167h-4.167V18.75h4.167v-4.167h2.083v4.167h4.167
		V20.833z"/>
</g>
</svg>
