<?xml version="1.0" encoding="utf-8"?>
<!-- Generator: Adobe Illustrator 16.0.0, SVG Export Plug-In . SVG Version: 6.00 Build 0)  -->
<!DOCTYPE svg PUBLIC "-//W3C//DTD SVG 1.1//EN" "http://www.w3.org/Graphics/SVG/1.1/DTD/svg11.dtd">
<svg version="1.1" id="Layer_1" xmlns="http://www.w3.org/2000/svg" xmlns:xlink="http://www.w3.org/1999/xlink" x="0px" y="0px"
	 width="290px" height="180px" viewBox="0 0 290 180" enable-background="new 0 0 290 180" xml:space="preserve">
<path d="M164.094,105.282v-4.454c1.772-0.204,3.157-1.713,3.157-3.542c0-1.948-1.571-3.532-3.514-3.562l-2.056-20.505
	c1.604-0.349,2.809-1.776,2.809-3.482c0-1.966-1.602-3.565-3.567-3.565c-0.57,0-1.108,0.138-1.587,0.377l-14.265-21.94
	c0.789-0.654,1.294-1.642,1.294-2.746c0-1.966-1.6-3.566-3.565-3.566c-0.676,0-1.308,0.193-1.847,0.521l-1.712-2.205
	c0.662-0.648,1.074-1.55,1.074-2.546c0-1.966-1.6-3.565-3.565-3.565c-0.886,0-1.694,0.326-2.319,0.862l-10.698-9.907
	c0.433-0.591,0.693-1.317,0.693-2.104c0-1.966-1.599-3.565-3.566-3.565c-1.828,0-3.337,1.383-3.541,3.158h-3.701
	c-0.639-0.602-1.497-0.974-2.442-0.974c-0.944,0-1.802,0.372-2.44,0.974H95.895c-0.203-1.775-1.712-3.158-3.541-3.158
	s-3.338,1.383-3.541,3.158h-2.77c-0.203-1.775-1.712-3.158-3.541-3.158c-1.828,0-3.336,1.383-3.54,3.158h-2.798
	c-0.204-1.775-1.713-3.158-3.541-3.158c-1.855,0-3.383,1.424-3.549,3.238l-2.772,0.062c-0.239-1.736-1.728-3.079-3.528-3.079
	c-1.967,0-3.566,1.599-3.566,3.565c0,0.529,0.119,1.029,0.325,1.48l-2.802,1.692c-0.496-0.262-1.06-0.412-1.659-0.412
	c-1.966,0-3.565,1.599-3.565,3.565v0.001l-11.534,6.964c-0.653-0.843-1.671-1.388-2.817-1.388c-1.966,0-3.565,1.599-3.565,3.565
	c0,1.248,0.645,2.345,1.617,2.983l-10.58,21.133c-0.363-0.125-0.752-0.196-1.158-0.196c-1.967,0-3.566,1.599-3.566,3.565
	c0,1.224,0.62,2.305,1.562,2.948l-3.79,7.57c-0.027,0-0.053-0.003-0.08-0.003c-1.966,0-3.565,1.599-3.565,3.565
	c0,0.829,0.287,1.591,0.763,2.196l-3.109,6.21c-0.381-0.139-0.791-0.219-1.219-0.219c-1.966,0-3.565,1.599-3.565,3.565
	c0,1.829,1.384,3.338,3.158,3.542v2.716c-1.774,0.204-3.158,1.713-3.158,3.539c0,1.829,1.384,3.338,3.158,3.542v2.894
	c-1.774,0.202-3.158,1.711-3.158,3.54c0,1.966,1.599,3.564,3.565,3.564c0.373,0,0.732-0.058,1.07-0.163l10.088,22.632
	c-1.047,0.622-1.753,1.76-1.753,3.063c0,1.968,1.6,3.567,3.565,3.567c0.433,0,0.846-0.082,1.23-0.223l1.463,2.898
	c-0.343,0.546-0.543,1.189-0.543,1.882c0,1.871,1.45,3.408,3.285,3.552l1.473,2.92c-0.967,0.639-1.606,1.732-1.606,2.976
	c0,1.966,1.599,3.565,3.565,3.565c1.08,0,2.046-0.482,2.701-1.243l2.403,1.627c-0.258,0.493-0.406,1.053-0.406,1.648
	c0,1.966,1.6,3.564,3.566,3.564c1.478,0,2.749-0.904,3.289-2.188l16.036,4.642c0.297,1.668,1.755,2.938,3.506,2.938
	c1.041,0,1.974-0.45,2.627-1.164l3.03,0.879c-0.032,0.193-0.053,0.391-0.053,0.592c0,1.966,1.6,3.565,3.565,3.565
	c1.865,0,3.396-1.438,3.55-3.263l46.529-1.396c0.25,1.724,1.732,3.053,3.524,3.053c1.966,0,3.565-1.602,3.565-3.567
	c0-0.36-0.055-0.707-0.154-1.035l2.954-1.282c0.618,1.063,1.766,1.781,3.083,1.781c1.966,0,3.565-1.6,3.565-3.565
	c0-1.097-0.5-2.081-1.283-2.735l5.315-8.101c0.112,0.011,0.226,0.017,0.342,0.017c1.966,0,3.565-1.599,3.565-3.564
	c0-0.626-0.163-1.214-0.447-1.724l1.764-2.688c0.481,0.242,1.024,0.384,1.6,0.384c1.967,0,3.566-1.6,3.566-3.567
	c0-1.227-0.623-2.309-1.567-2.95l8.942-17.146c0.396,0.152,0.825,0.24,1.273,0.24c1.968,0,3.567-1.602,3.567-3.567
	c0-1.648-1.128-3.033-2.647-3.44l0.398-2.725c0.039,0,0.075,0.006,0.113,0.006c1.966,0,3.565-1.601,3.565-3.566
	C167.251,106.993,165.866,105.484,164.094,105.282z M166.944,97.286c0,1.801-1.46,3.261-3.259,3.261c-1.801,0-3.26-1.46-3.26-3.261
	c0-1.799,1.459-3.259,3.26-3.259C165.484,94.027,166.944,95.487,166.944,97.286z M140.168,150.668l-3.86,1.767
	c-0.445-0.733-1.143-1.295-1.976-1.559l0.543-2.811c0.09,0.007,0.18,0.013,0.271,0.013c1.149,0,2.169-0.547,2.822-1.394l2.344,1.409
	c-0.205,0.45-0.322,0.947-0.322,1.473C139.992,149.952,140.055,150.32,140.168,150.668z M98.638,154.804l-5.224,1.479
	c-0.377-0.915-1.126-1.638-2.058-1.982l2.748-11.214c0.147,0.019,0.294,0.031,0.446,0.031c0.446,0,0.872-0.085,1.266-0.235
	l4.347,8.393c-0.95,0.644-1.574,1.729-1.574,2.959C98.588,154.428,98.607,154.617,98.638,154.804z M13.881,107.106l14.411-6.185
	c0.208,0.362,0.477,0.687,0.794,0.954l-7.222,10.88c-0.487-0.251-1.035-0.393-1.618-0.393c-0.979,0-1.868,0.396-2.513,1.04
	l-4.247-3.388c0.344-0.546,0.546-1.193,0.546-1.886C14.033,107.773,13.979,107.433,13.881,107.106z M16.784,93.749l-3.527,2.191
	c-0.574-0.721-1.419-1.216-2.382-1.325v-2.716c1.174-0.136,2.177-0.841,2.721-1.833l2.975,1.207
	c-0.084,0.304-0.133,0.623-0.133,0.954C16.438,92.771,16.564,93.286,16.784,93.749z M20.771,74.986l9.178-6.093
	c0.428,0.507,0.995,0.894,1.641,1.1l-1.875,9.557c-0.093-0.007-0.187-0.015-0.282-0.015c-1.199,0-2.258,0.597-2.905,1.506
	l-5.63-3.09c0.17-0.416,0.266-0.87,0.266-1.346C21.164,76.022,21.02,75.473,20.771,74.986z M26.721,61.067l3.688-2.191
	c0.534,0.7,1.319,1.195,2.222,1.352l-0.162,2.814c-1.221,0.069-2.278,0.754-2.866,1.751l-2.727-1.207
	c0.104-0.335,0.161-0.691,0.161-1.061C27.036,62.005,26.922,61.513,26.721,61.067z M58.303,40.985L44.004,59.476
	c-0.539-0.327-1.167-0.519-1.841-0.519c-0.079,0-0.156,0.007-0.233,0.012l-3.736-20.518c1.177-0.358,2.094-1.31,2.409-2.505
	l16.626,2.389c0,0.033-0.005,0.066-0.005,0.1C57.224,39.435,57.638,40.337,58.303,40.985z M63.11,32.475l-1.198,2.578
	c-0.353-0.118-0.73-0.184-1.122-0.184c-0.383,0-0.752,0.063-1.098,0.175l-2.779-6.097c0.581-0.352,1.053-0.862,1.356-1.474
	L61.5,28.63c-0.061,0.26-0.096,0.53-0.096,0.809C61.405,30.723,62.088,31.848,63.11,32.475z M100.593,26.69l-0.333,2.755
	c-0.006,0-0.013-0.001-0.02-0.001c-0.503,0-0.983,0.107-1.418,0.296l-4.346-7.529c0.394-0.293,0.727-0.665,0.972-1.094l2.557,1.093
	c-0.096,0.322-0.15,0.663-0.15,1.017C97.855,24.906,99.025,26.315,100.593,26.69z M107.621,21.738l-2.782,0.482
	c-0.115-0.389-0.295-0.75-0.526-1.071l3.298,0.382c0,0.001,0,0.003,0,0.004C107.611,21.604,107.618,21.671,107.621,21.738z
	 M104.976,23.024l2.783-0.482c0.367,1.247,1.398,2.212,2.685,2.482l-0.419,4.496c-0.726,0.016-1.399,0.248-1.955,0.637l-4.004-4.546
	c0.571-0.632,0.922-1.467,0.922-2.384C104.986,23.158,104.98,23.091,104.976,23.024z M135.188,37.266l-2.169,6.138
	c-0.256-0.059-0.522-0.093-0.795-0.093c-0.5,0-0.976,0.104-1.407,0.291l-6.654-11.601c0.475-0.351,0.857-0.815,1.111-1.354
	l7.99,2.679c-0.05,0.239-0.078,0.486-0.078,0.74C133.184,35.471,134.003,36.685,135.188,37.266z M135.596,45.729l4.183-1.983
	c0.508,0.812,1.329,1.407,2.296,1.607l-0.254,2.81c-1.21,0.03-2.272,0.664-2.896,1.613l-3.356-1.68
	c0.14-0.381,0.22-0.791,0.22-1.219C135.789,46.475,135.718,46.09,135.596,45.729z M157.824,71.493l-10.675,7.792
	c-0.223-0.242-0.479-0.452-0.76-0.625l4.654-10.046c0.352,0.117,0.728,0.182,1.118,0.182c1.233,0,2.321-0.63,2.962-1.584
	l2.467,1.269c-0.148,0.392-0.232,0.813-0.232,1.256C157.358,70.375,157.528,70.974,157.824,71.493z M160.186,97.964l-1.679-4.637
	c0.193-0.097,0.376-0.21,0.549-0.339l1.899,2.009c-0.521,0.619-0.836,1.419-0.836,2.289
	C160.119,97.518,160.143,97.743,160.186,97.964z M156.919,93.399c-1.8,0-3.26-1.46-3.26-3.26c0-1.801,1.46-3.261,3.26-3.261
	c1.801,0,3.26,1.46,3.26,3.261C160.179,91.939,158.72,93.399,156.919,93.399z M105.66,153.609l15.257-4.56
	c0.496,1.153,1.585,1.993,2.882,2.137l0.014,3.587c-1.416,0.167-2.58,1.166-2.988,2.495l-15.119-2.793
	c0.005-0.082,0.013-0.161,0.013-0.242C105.719,154.019,105.697,153.812,105.66,153.609z M120.934,147.646
	c0-1.803,1.46-3.261,3.261-3.261c1.8,0,3.259,1.458,3.259,3.261c0,1.799-1.459,3.258-3.259,3.258
	C122.394,150.903,120.934,149.444,120.934,147.646z M73.873,157.297l3.745-1.983c0.537,0.78,1.375,1.333,2.345,1.496l-0.148,2.815
	c-1.172,0.072-2.191,0.711-2.786,1.646l-3.112-1.505c0.128-0.368,0.202-0.763,0.202-1.175
	C74.119,158.135,74.03,157.699,73.873,157.297z M49.743,150.749l7.938-17.854c0.337,0.104,0.695,0.162,1.066,0.162
	c0.331,0,0.649-0.049,0.953-0.133l9.145,22.54c-0.781,0.429-1.384,1.143-1.671,1.998l-15.692-3.312
	c0.01-0.109,0.017-0.221,0.017-0.332C51.5,152.512,50.792,151.371,49.743,150.749z M96.791,33.898l-3.865,1.485
	c-0.597-1.137-1.788-1.916-3.159-1.916c-0.682,0-1.317,0.196-1.86,0.529l-1.752-2.238c0.38-0.375,0.674-0.837,0.855-1.351
	l9.687,2.212c-0.014,0.128-0.022,0.259-0.022,0.391C96.674,33.317,96.717,33.614,96.791,33.898z M113.593,32.358l5.222-1.725
	c0.567,1.22,1.801,2.069,3.232,2.069c0.5,0,0.977-0.105,1.408-0.291l6.654,11.601c-0.252,0.186-0.479,0.403-0.673,0.647
	l-16.118-10.05c0.221-0.464,0.349-0.98,0.349-1.526C113.667,32.834,113.642,32.592,113.593,32.358z M129.006,45.351
	c-0.171,0.36-0.288,0.75-0.33,1.164l-18.551,0.237c-0.169-1.327-1.07-2.426-2.286-2.883l1.804-7.254
	c0.15,0.02,0.302,0.033,0.458,0.033c1.129,0,2.133-0.528,2.787-1.348L129.006,45.351z M150.305,68.268l-4.653,10.046
	c-0.353-0.117-0.728-0.182-1.118-0.182c-0.358,0-0.703,0.055-1.029,0.153l-7.333-17.001c0.576-0.333,1.051-0.819,1.367-1.405
	l11.185,4.427c-0.079,0.295-0.125,0.604-0.125,0.923C148.597,66.515,149.282,67.64,150.305,68.268z M123.175,120.671l4.346-0.69
	c0.234,0.84,0.766,1.554,1.477,2.023l-1.291,2.562c-0.382-0.142-0.794-0.221-1.226-0.221c-0.815,0-1.566,0.276-2.167,0.739
	l-1.941-2.004c0.506-0.615,0.811-1.402,0.811-2.26C123.183,120.771,123.177,120.72,123.175,120.671z M131.634,145.094l-4.147,1.186
	c-0.321-0.771-0.907-1.406-1.643-1.792l1.307-3.402c0.285,0.073,0.582,0.116,0.889,0.116c0.858,0,1.646-0.305,2.262-0.811
	l2.021,1.957c-0.462,0.601-0.74,1.351-0.74,2.166C131.583,144.711,131.603,144.905,131.634,145.094z M128.039,140.896
	c-1.8,0-3.26-1.46-3.26-3.261s1.46-3.261,3.26-3.261c1.801,0,3.261,1.46,3.261,3.261S129.84,140.896,128.039,140.896z
	 M124.318,130.737c0.601,0.461,1.349,0.737,2.162,0.737c0.054,0,0.105-0.006,0.158-0.008l0.439,2.739
	c-1.248,0.352-2.22,1.363-2.51,2.635l-2.847-0.317c-0.003-0.854-0.308-1.638-0.813-2.251L124.318,130.737z M120.318,133.709
	c-0.415-0.317-0.899-0.549-1.429-0.66l0.805-8.665c0.786-0.018,1.508-0.29,2.09-0.738l1.941,2.005
	c-0.506,0.615-0.81,1.402-0.81,2.26c0,0.859,0.306,1.648,0.813,2.264L120.318,133.709z M130.144,134.766
	c-0.59-0.436-1.317-0.694-2.105-0.694c-0.053,0-0.104,0.004-0.157,0.009l-0.439-2.74c1.324-0.373,2.336-1.49,2.555-2.868
	l3.086,0.135c0.056,0.785,0.365,1.501,0.85,2.066L130.144,134.766z M126.48,131.168c-1.8,0-3.259-1.457-3.259-3.258
	s1.459-3.261,3.259-3.261c1.801,0,3.261,1.46,3.261,3.261S128.281,131.168,126.48,131.168z M119.616,124.081
	c-1.8,0-3.26-1.46-3.26-3.261c0-1.799,1.46-3.259,3.26-3.259c1.801,0,3.261,1.46,3.261,3.259
	C122.877,122.621,121.417,124.081,119.616,124.081z M114.592,136.581l-16.584,2.118c-0.174-0.703-0.556-1.324-1.08-1.794
	l1.975-2.785c0.51,0.281,1.094,0.441,1.717,0.441c1.447,0,2.693-0.868,3.252-2.109l10.784,3.407
	c-0.043,0.218-0.066,0.445-0.066,0.677C114.59,136.552,114.592,136.566,114.592,136.581z M78.781,135.012l9.077-4.233
	c0.628,1.019,1.751,1.702,3.034,1.702c0.263,0,0.519-0.032,0.766-0.086l1.357,3.944c-0.898,0.431-1.588,1.225-1.879,2.191
	l-12.18-2.172c0.004-0.073,0.011-0.144,0.011-0.219C78.966,135.745,78.9,135.368,78.781,135.012z M55.206,129.887l-2.815,0.645
	c-0.491-1.382-1.809-2.377-3.357-2.377c-0.256,0-0.505,0.028-0.746,0.081l-0.897-2.66c0.552-0.262,1.026-0.658,1.379-1.151
	l6.684,3.707c-0.174,0.42-0.271,0.879-0.271,1.361C55.183,129.625,55.191,129.756,55.206,129.887z M33.971,125.769l8.57-2.157
	c0.51,1.347,1.809,2.307,3.332,2.307c0.256,0,0.505-0.027,0.746-0.079l0.897,2.66c-0.789,0.371-1.422,1.023-1.765,1.829
	l-11.802-3.481c0.034-0.199,0.056-0.403,0.056-0.611C34.006,126.077,33.992,125.921,33.971,125.769z M32.944,82.495l2.68-0.787
	c0.369,0.868,1.072,1.558,1.947,1.914L36.67,86.88c-0.18-0.028-0.363-0.047-0.55-0.047c-0.781,0-1.501,0.255-2.089,0.682
	l-1.907-2.082C32.667,84.808,33,83.993,33,83.101C33,82.896,32.978,82.691,32.944,82.495z M71.447,44.296l2.732-0.973
	c0.582,1.18,1.794,1.995,3.196,1.995c0.165,0,0.326-0.015,0.486-0.037l0.706,2.751c-0.679,0.262-1.26,0.723-1.667,1.314
	l-5.604-2.956c0.157-0.401,0.246-0.835,0.246-1.291C71.542,44.823,71.507,44.555,71.447,44.296z M80.827,40.874l5.777-2.201
	c0.488,0.938,1.378,1.632,2.442,1.852l-0.295,3.315c-1.218,0.032-2.283,0.673-2.902,1.632l-5.12-2.521
	c0.134-0.375,0.211-0.778,0.211-1.198C80.941,41.448,80.899,41.155,80.827,40.874z M94.646,43.841l-2.873,1.534
	c-0.513-0.74-1.298-1.278-2.21-1.467l0.296-3.315c1.047-0.027,1.983-0.505,2.619-1.25l2.317,1.556
	c-0.255,0.491-0.401,1.045-0.401,1.635C94.394,42.996,94.485,43.436,94.646,43.841z M103.313,48.605l-2.933,1.674
	c-0.542-0.737-1.36-1.257-2.301-1.409l0.126-2.784c1.105-0.076,2.071-0.654,2.672-1.511l2.407,1.302
	c-0.165,0.41-0.258,0.857-0.258,1.326C103.026,47.701,103.128,48.174,103.313,48.605z M131.498,60.268l-13.752,12.439
	c-0.628-0.552-1.449-0.891-2.349-0.891c-0.228,0-0.45,0.023-0.667,0.065l-6.694-21.42c0.726-0.323,1.325-0.88,1.699-1.576
	l21.22,8.39c-0.08,0.294-0.125,0.603-0.125,0.922C130.829,58.969,131.079,59.683,131.498,60.268z M116.304,122.133l-12.756,6.834
	c-0.386-0.553-0.922-0.995-1.551-1.259l3.47-11.985c0.193,0.032,0.39,0.054,0.593,0.054c1.117,0,2.115-0.517,2.769-1.325
	l7.585,4.817c-0.229,0.47-0.361,0.994-0.361,1.552C116.051,121.286,116.142,121.728,116.304,122.133z M93.236,126.235l2.027-2.935
	c0.5,0.268,1.072,0.422,1.678,0.422c0.258,0,0.51-0.029,0.752-0.081l1.404,4.138c-0.867,0.411-1.541,1.159-1.852,2.079l-2.806-0.603
	c0.011-0.111,0.017-0.227,0.017-0.343C94.456,127.846,93.982,126.89,93.236,126.235z M46.064,118.797l-0.2-3.278
	c1.157-0.205,2.122-0.969,2.605-2.004l3.21,1.067c-0.049,0.238-0.076,0.482-0.076,0.733c0,0.66,0.185,1.277,0.5,1.81l-3.656,2.768
	C47.839,119.258,46.999,118.849,46.064,118.797z M49.133,122.354c0,1.801-1.46,3.261-3.26,3.261c-1.8,0-3.26-1.46-3.26-3.261
	s1.46-3.261,3.26-3.261C47.673,119.093,49.133,120.553,49.133,122.354z M39.005,105.017l3.459-4.36
	c0.497,0.311,1.073,0.5,1.693,0.531l0.456,7.317c-0.973,0.174-1.811,0.739-2.34,1.532l-2.453-1.252
	c0.146-0.39,0.229-0.808,0.229-1.247C40.051,106.554,39.651,105.662,39.005,105.017z M83.249,50.305l2.52-1.107
	c0.483,0.824,1.287,1.436,2.24,1.666l-0.37,3.018c-0.009,0-0.018-0.002-0.026-0.002c-0.991,0-1.888,0.408-2.535,1.062l-2.201-1.724
	c0.333-0.542,0.53-1.178,0.53-1.86C83.407,50.992,83.352,50.638,83.249,50.305z M141.116,82.713l-19.771,8.43
	c-0.614-1.076-1.77-1.803-3.095-1.803c-0.057,0-0.111,0.006-0.166,0.009l-1.716-10.538c1.127-0.32,2.026-1.178,2.402-2.28
	l22.216,4.816c-0.012,0.116-0.019,0.234-0.019,0.353C140.967,82.05,141.021,82.391,141.116,82.713z M93.387,120.386l-6.801,1.23
	c-0.193-0.637-0.563-1.199-1.048-1.63l1.621-2.315c0.505,0.277,1.083,0.434,1.698,0.434c1.064,0,2.019-0.472,2.672-1.214l2.272,1.58
	c-0.271,0.502-0.426,1.076-0.426,1.686C93.375,120.233,93.382,120.311,93.387,120.386z M79.718,123.509l-5.74,2.15
	c-0.332-0.644-0.851-1.175-1.488-1.518l1.025-2.595c0.296,0.08,0.604,0.127,0.924,0.127c1.227,0,2.312-0.624,2.953-1.571
	l2.455,1.275c-0.152,0.395-0.238,0.823-0.238,1.271C79.609,122.945,79.649,123.232,79.718,123.509z M57.07,112.304l1.209-2.513
	c0.366,0.126,0.758,0.199,1.167,0.199c0.321,0,0.631-0.045,0.928-0.127l2.329,5.863c-0.625,0.339-1.138,0.857-1.469,1.488
	l-2.617-1.008c0.074-0.287,0.118-0.585,0.118-0.892C58.734,114.049,58.068,112.936,57.07,112.304z M48.683,111.097l7.618-2.997
	c0.292,0.547,0.723,1.008,1.245,1.338l-1.209,2.512c-0.367-0.128-0.758-0.201-1.167-0.201c-1.429,0-2.66,0.847-3.229,2.062
	l-3.21-1.067c0.049-0.236,0.076-0.48,0.076-0.731C48.807,111.694,48.761,111.388,48.683,111.097z M55.184,79.227l9.365-3.64
	c0.217,0.407,0.508,0.767,0.856,1.062l-3.28,4.947c-0.485-0.248-1.034-0.391-1.616-0.391c-1.218,0-2.295,0.615-2.938,1.549
	l-2.515-1.33c0.157-0.403,0.247-0.838,0.247-1.296C55.304,79.816,55.259,79.515,55.184,79.227z M72.368,63.502l2.734-0.867
	c0.559,1.241,1.804,2.108,3.251,2.108c0.613,0,1.19-0.156,1.695-0.429l1.638,2.344c-0.359,0.318-0.653,0.706-0.86,1.145
	l-8.471-2.869c0.052-0.243,0.082-0.493,0.082-0.75C72.436,63.95,72.411,63.723,72.368,63.502z M93.088,63.657l-6.179,3.551
	c-0.373-0.503-0.873-0.907-1.455-1.158l1.532-5.099c0.204,0.037,0.413,0.059,0.627,0.059c1.198,0,2.258-0.596,2.906-1.505
	l2.542,1.396c-0.17,0.416-0.266,0.87-0.266,1.346C92.796,62.748,92.901,63.224,93.088,63.657z M62.674,104.918
	c-0.57-1.213-1.8-2.058-3.228-2.058c-0.33,0-0.647,0.049-0.951,0.133L55.77,96.26c0.575-0.315,1.052-0.785,1.38-1.353l13.214,5.706
	c-0.099,0.326-0.153,0.671-0.153,1.029c0,0.253,0.027,0.497,0.078,0.735L62.674,104.918z M62.706,106.425
	c0,1.801-1.459,3.261-3.26,3.261s-3.259-1.46-3.259-3.261s1.459-3.261,3.259-3.261S62.706,104.624,62.706,106.425z M71.217,73.359
	l9.531-2.683c0.146,0.357,0.352,0.685,0.6,0.974L73.4,80.272c-0.589-0.431-1.314-0.689-2.099-0.689
	c-0.314,0-0.616,0.045-0.907,0.121l-1.027-2.629c1.127-0.6,1.898-1.786,1.898-3.149C71.266,73.732,71.247,73.544,71.217,73.359z
	 M81.788,60.232l2.693-1.085c0.381,0.698,0.988,1.254,1.724,1.571l-1.532,5.099c-0.204-0.037-0.413-0.059-0.627-0.059
	c-0.613,0-1.191,0.155-1.694,0.429l-1.639-2.344c0.739-0.654,1.206-1.605,1.206-2.666C81.918,60.851,81.871,60.534,81.788,60.232z
	 M84.046,66.064c1.8,0,3.26,1.459,3.26,3.26c0,1.8-1.46,3.26-3.26,3.26c-1.801,0-3.261-1.46-3.261-3.26
	C80.785,67.523,82.245,66.064,84.046,66.064z M94.022,73.916l-2.345,1.671c-0.653-0.724-1.594-1.183-2.644-1.183
	c-0.503,0-0.981,0.106-1.417,0.295l-1.45-2.515c0.573-0.426,1.013-1.017,1.249-1.704l6.179,1.354
	c-0.012,0.119-0.018,0.239-0.018,0.36C93.576,72.818,93.739,73.405,94.022,73.916z M101.586,94.129c0,1.249,0.647,2.35,1.624,2.986
	l-1.34,2.692c-0.379-0.138-0.786-0.215-1.211-0.215c-0.206,0-0.405,0.02-0.601,0.054l-3.155-10.809
	c0.364-0.154,0.695-0.371,0.986-0.63l4.349,3.874C101.829,92.66,101.586,93.365,101.586,94.129z M105.151,90.868
	c1.801,0,3.259,1.46,3.259,3.261s-1.458,3.261-3.259,3.261c-1.8,0-3.26-1.46-3.26-3.261S103.352,90.868,105.151,90.868z
	 M97.104,103.386l-2.722,0.49c-0.327-1.078-1.152-1.939-2.206-2.321l2.929-12.464c0.136,0.017,0.274,0.026,0.414,0.026
	c0.205,0,0.405-0.021,0.6-0.054l3.156,10.809c-1.281,0.54-2.183,1.809-2.183,3.286C97.093,103.235,97.099,103.311,97.104,103.386z
	 M64.068,84.647l3.794-0.57c0.411,1.518,1.794,2.637,3.438,2.637c0.548,0,1.064-0.126,1.527-0.347l1.457,2.334
	c-0.358,0.285-0.661,0.639-0.887,1.04l-9.468-3.975c0.091-0.317,0.144-0.649,0.144-0.995C64.075,84.728,64.069,84.688,64.068,84.647
	z M79.763,99.345l-2.731,0.853c-0.378-0.849-1.077-1.521-1.944-1.867l0.893-3.322c0.172,0.025,0.346,0.043,0.524,0.043
	c0.797,0,1.53-0.267,2.125-0.71l1.913,2.036c-0.526,0.622-0.846,1.424-0.846,2.299C79.697,98.905,79.721,99.128,79.763,99.345z
	 M74.813,82.548l10.934-3.193c0.311,0.734,0.862,1.342,1.552,1.729l-1.057,2.543c-0.312-0.09-0.641-0.142-0.982-0.142
	c-1.49,0-2.768,0.919-3.299,2.221l-7.142-1.998c0.029-0.183,0.048-0.369,0.048-0.56C74.868,82.942,74.846,82.743,74.813,82.548z
	 M81.744,86.49c-0.029,0.182-0.048,0.369-0.048,0.56c0,0.435,0.082,0.851,0.225,1.235l-2.443,1.239
	c-0.639-0.965-1.732-1.604-2.973-1.604c-0.547,0-1.063,0.126-1.527,0.349l-1.457-2.334c0.474-0.377,0.849-0.873,1.082-1.44
	L81.744,86.49z M76.504,88.227c1.799,0,3.259,1.458,3.259,3.258s-1.46,3.261-3.259,3.261c-1.801,0-3.26-1.46-3.26-3.261
	S74.704,88.227,76.504,88.227z M79.225,93.785c0.526-0.621,0.845-1.423,0.845-2.3c0-0.436-0.082-0.849-0.225-1.235l2.443-1.237
	c0.46,0.694,1.155,1.218,1.972,1.456l-0.798,4.652c-0.065-0.004-0.131-0.011-0.197-0.011c-0.798,0-1.532,0.266-2.125,0.71
	L79.225,93.785z M82.001,87.05c0-1.801,1.46-3.258,3.259-3.258c1.801,0,3.261,1.458,3.261,3.258s-1.46,3.261-3.261,3.261
	C83.461,90.311,82.001,88.851,82.001,87.05z M85.063,90.606c0.067,0.002,0.131,0.009,0.197,0.009c1.967,0,3.566-1.6,3.566-3.565
	c0-0.036-0.004-0.071-0.005-0.107l3.256-0.476c0.138,0.521,0.389,0.995,0.729,1.394l-7.427,7.953
	c-0.332-0.246-0.708-0.438-1.115-0.558L85.063,90.606z M91.959,85.661l-3.256,0.476c-0.25-0.943-0.875-1.732-1.708-2.2l1.057-2.542
	c0.312,0.09,0.641,0.141,0.981,0.141c0.738,0,1.424-0.225,1.993-0.61l1.885,2.203c-0.592,0.637-0.957,1.488-0.957,2.422
	C91.954,85.588,91.958,85.625,91.959,85.661z M89.033,81.23c-1.8,0-3.26-1.46-3.26-3.259c0-1.801,1.46-3.261,3.26-3.261
	c1.8,0,3.26,1.46,3.26,3.261C92.293,79.77,90.833,81.23,89.033,81.23z M85.467,77.971c0,0.205,0.021,0.405,0.055,0.6l-10.934,3.193
	c-0.146-0.345-0.348-0.661-0.588-0.94l7.948-8.623c0.589,0.431,1.314,0.688,2.099,0.688c0.503,0,0.982-0.106,1.416-0.295
	l1.451,2.516C86.038,75.76,85.467,76.799,85.467,77.971z M74.562,83.148c0,1.801-1.46,3.26-3.261,3.26
	c-1.8,0-3.259-1.459-3.259-3.26c0-1.8,1.459-3.26,3.259-3.26C73.102,79.888,74.562,81.348,74.562,83.148z M73.083,90.491
	c-0.092,0.317-0.144,0.65-0.144,0.995c0,1.503,0.936,2.789,2.253,3.312L74.3,98.12c-0.171-0.025-0.346-0.043-0.525-0.043
	c-0.684,0-1.322,0.197-1.866,0.534l-8.891-11.311c0.233-0.231,0.434-0.495,0.597-0.785L73.083,90.491z M73.775,98.384
	c1.801,0,3.259,1.458,3.259,3.259s-1.458,3.261-3.259,3.261c-1.8,0-3.26-1.46-3.26-3.261S71.976,98.384,73.775,98.384z
	 M73.775,105.21c0.676,0,1.307-0.193,1.845-0.521l1.84,2.373c-0.604,0.592-0.997,1.394-1.062,2.285l-4.212,0.172
	c-0.144-0.915-0.634-1.715-1.336-2.262l1.44-2.377C72.743,105.09,73.245,105.21,73.775,105.21z M76.265,104.191
	c0.663-0.649,1.075-1.55,1.075-2.549c0-0.228-0.023-0.45-0.064-0.667l2.731-0.854c0.362,0.815,1.02,1.469,1.839,1.825l-1.26,4.158
	c-0.207-0.038-0.419-0.06-0.637-0.06c-0.675,0-1.305,0.19-1.845,0.519L76.265,104.191z M80.003,98.676
	c0-1.801,1.46-3.259,3.261-3.259c1.799,0,3.259,1.458,3.259,3.259s-1.46,3.261-3.259,3.261
	C81.463,101.937,80.003,100.477,80.003,98.676z M86.829,98.676c0-0.879-0.322-1.686-0.852-2.307l7.427-7.954
	c0.275,0.204,0.581,0.369,0.91,0.487l-2.931,12.464c-0.136-0.016-0.273-0.026-0.414-0.026c-0.971,0-1.852,0.393-2.495,1.025
	l-2.203-1.782C86.623,100.03,86.829,99.379,86.829,98.676z M90.969,101.646c1.801,0,3.261,1.46,3.261,3.261
	c0,1.799-1.46,3.259-3.261,3.259c-1.8,0-3.26-1.46-3.26-3.259C87.709,103.106,89.169,101.646,90.969,101.646z M100.659,99.897
	c1.799,0,3.259,1.46,3.259,3.261s-1.46,3.259-3.259,3.259c-1.801,0-3.261-1.458-3.261-3.259S98.858,99.897,100.659,99.897z
	 M95.52,88.812c-1.801,0-3.26-1.46-3.26-3.261s1.459-3.26,3.26-3.26c1.799,0,3.259,1.459,3.259,3.26S97.319,88.812,95.52,88.812z
	 M95.542,81.987c-0.008,0-0.015-0.001-0.022-0.001c-0.738,0-1.424,0.225-1.993,0.609l-1.884-2.202
	c0.591-0.637,0.956-1.487,0.956-2.422c0-0.625-0.162-1.211-0.445-1.723l2.344-1.671c0.475,0.526,1.102,0.91,1.812,1.08
	L95.542,81.987z M69.635,79.999c-1.128,0.599-1.898,1.786-1.898,3.15c0,0.041,0.004,0.081,0.006,0.122l-3.795,0.57
	c-0.192-0.709-0.596-1.333-1.143-1.795l3.28-4.947c0.487,0.249,1.035,0.391,1.617,0.391c0.314,0,0.617-0.045,0.907-0.121
	L69.635,79.999z M63.77,84.771c0,1.799-1.46,3.259-3.26,3.259s-3.26-1.46-3.26-3.259c0-1.801,1.46-3.261,3.26-3.261
	S63.77,82.97,63.77,84.771z M58.672,87.819c0.537,0.326,1.165,0.517,1.837,0.517c0.684,0,1.323-0.197,1.866-0.534l8.892,11.311
	c-0.225,0.223-0.418,0.478-0.579,0.752l-13.214-5.704c0.099-0.326,0.153-0.671,0.153-1.029c0-1.001-0.416-1.906-1.082-2.554
	L58.672,87.819z M57.322,93.132c0,1.801-1.459,3.261-3.26,3.261s-3.26-1.46-3.26-3.261s1.46-3.261,3.26-3.261
	S57.322,91.331,57.322,93.132z M62.936,105.689l7.613-2.54c0.241,0.515,0.6,0.963,1.045,1.308l-1.441,2.378
	c-0.452-0.21-0.955-0.33-1.484-0.33c-1.359,0-2.542,0.765-3.144,1.884l-2.637-1.042c0.078-0.293,0.124-0.603,0.124-0.922
	C63.011,106.175,62.985,105.928,62.936,105.689z M68.668,106.811c1.799,0,3.259,1.46,3.259,3.261s-1.46,3.259-3.259,3.259
	c-1.802,0-3.261-1.458-3.261-3.259S66.866,106.811,68.668,106.811z M72.219,110.333l4.214-0.171c0.137,0.879,0.593,1.652,1.25,2.197
	l-1.659,2.558c-0.478-0.238-1.014-0.376-1.583-0.376c-0.629,0-1.221,0.165-1.734,0.453l-1.645-2.29
	C71.717,112.108,72.15,111.272,72.219,110.333z M76.691,109.61c0-1.801,1.458-3.26,3.259-3.26s3.26,1.459,3.26,3.26
	c0,1.799-1.459,3.259-3.26,3.259S76.691,111.409,76.691,109.61z M83.045,107.847c-0.382-0.667-0.969-1.198-1.678-1.507l1.26-4.159
	c0.207,0.038,0.419,0.062,0.637,0.062c0.971,0,1.852-0.393,2.495-1.025l2.203,1.781c-0.351,0.554-0.557,1.205-0.557,1.908
	c0,0.352,0.052,0.692,0.149,1.014L83.045,107.847z M83.366,108.595l4.508-1.925c0.427,0.746,1.115,1.322,1.938,1.605l-0.595,2.716
	c-0.119-0.013-0.239-0.02-0.361-0.02c-1.194,0-2.25,0.592-2.897,1.497l-2.714-1.501c0.174-0.418,0.271-0.877,0.271-1.357
	C83.516,109.257,83.462,108.916,83.366,108.595z M88.856,111.278c1.801,0,3.261,1.458,3.261,3.259s-1.46,3.261-3.261,3.261
	c-1.799,0-3.259-1.46-3.259-3.261S87.057,111.278,88.856,111.278z M92.423,114.537c0-1.561-1.01-2.888-2.41-3.368l0.596-2.716
	c0.118,0.013,0.239,0.02,0.36,0.02c0.315,0,0.62-0.045,0.911-0.122l3.39,8.658c-0.38,0.201-0.718,0.474-1.001,0.796l-2.272-1.58
	C92.269,115.723,92.423,115.148,92.423,114.537z M92.64,108.055c1.125-0.601,1.895-1.786,1.895-3.147
	c0-0.077-0.007-0.152-0.012-0.229l2.723-0.49c0.331,1.098,1.179,1.97,2.258,2.341L97.3,116.61c-0.118-0.013-0.238-0.02-0.359-0.02
	c-0.315,0-0.619,0.045-0.91,0.122L92.64,108.055z M100.3,106.706c0.118,0.011,0.238,0.017,0.359,0.017
	c0.521,0,1.015-0.115,1.463-0.316l1.775,2.976c-0.851,0.651-1.404,1.676-1.404,2.829c0,0.748,0.233,1.443,0.629,2.018l-3.783,3.297
	c-0.357-0.326-0.778-0.579-1.244-0.739L100.3,106.706z M102.82,105.985c0.852-0.651,1.404-1.674,1.404-2.827
	c0-0.039-0.004-0.077-0.005-0.116l3.884-0.576c0.227,0.845,0.751,1.564,1.459,2.041l-2.248,4.371
	c-0.392-0.148-0.813-0.231-1.255-0.231c-0.522,0-1.016,0.113-1.463,0.316L102.82,105.985z M107.983,101.659l-3.885,0.577
	c-0.23-0.859-0.771-1.591-1.499-2.064l1.34-2.694c0.378,0.139,0.786,0.216,1.211,0.216c0.742,0,1.432-0.227,2.003-0.617l1.771,2.054
	c-0.586,0.637-0.947,1.483-0.947,2.414C107.978,101.582,107.982,101.621,107.983,101.659z M107.769,96.542
	c0.57-0.619,0.925-1.436,0.944-2.336l6.048-0.566c0.148,0.701,0.502,1.327,0.997,1.81l-2.367,3.051
	c-0.54-0.328-1.17-0.521-1.847-0.521c-0.743,0-1.432,0.228-2.003,0.617L107.769,96.542z M114.688,92.827l-6.048,0.566
	c-0.188-0.895-0.714-1.664-1.434-2.174l6.851-12.535c0.415,0.168,0.866,0.264,1.34,0.264c0.057,0,0.111-0.006,0.167-0.009
	l1.715,10.537C115.807,89.895,114.721,91.232,114.688,92.827z M106.491,90.827c-0.414-0.169-0.866-0.264-1.34-0.264
	c-0.91,0-1.74,0.345-2.37,0.909l-4.349-3.872c0.41-0.581,0.652-1.287,0.652-2.05c0-0.439-0.083-0.859-0.229-1.248l13.575-6.946
	c0.245,0.364,0.554,0.681,0.913,0.934L106.491,90.827z M98.485,83.577c-0.491-0.735-1.25-1.276-2.134-1.489l0.769-6.33
	c0.007,0,0.015,0.001,0.022,0.001c1.615,0,2.981-1.081,3.417-2.555l11.282,1.971c-0.004,0.068-0.011,0.137-0.011,0.207
	c0,0.439,0.084,0.86,0.23,1.249L98.485,83.577z M111.979,74.371L100.698,72.4c0.003-0.068,0.009-0.137,0.009-0.207
	c0-1.923-1.529-3.49-3.435-3.559l-0.228-2.89c0.79-0.154,1.486-0.571,1.996-1.154l13.211,9.116
	C112.139,73.917,112.048,74.14,111.979,74.371z M97.142,68.934c1.801,0,3.26,1.459,3.26,3.26s-1.459,3.26-3.26,3.26
	s-3.259-1.459-3.259-3.26S95.341,68.934,97.142,68.934z M93.772,71.038l-6.179-1.354c0.012-0.119,0.018-0.239,0.018-0.36
	c0-0.501-0.105-0.978-0.292-1.411l6.18-3.551c0.626,0.845,1.613,1.403,2.734,1.443l0.227,2.89
	C95.202,68.94,94.182,69.848,93.772,71.038z M87.613,60.705c-1.8,0-3.26-1.459-3.26-3.259s1.46-3.26,3.26-3.26
	c1.801,0,3.261,1.46,3.261,3.26S89.414,60.705,87.613,60.705z M84.048,57.445c0,0.327,0.048,0.643,0.13,0.945l-2.693,1.086
	c-0.46-0.844-1.253-1.479-2.199-1.735l0.428-2.824c0.043,0.002,0.085,0.007,0.128,0.007c0.99,0,1.887-0.408,2.535-1.062l2.201,1.724
	C84.244,56.127,84.048,56.763,84.048,57.445z M81.613,61.178c0,1.8-1.459,3.26-3.26,3.26c-1.8,0-3.259-1.46-3.259-3.26
	c0-1.8,1.459-3.26,3.259-3.26C80.154,57.918,81.613,59.378,81.613,61.178z M80.562,68.574c-0.053,0.243-0.082,0.493-0.082,0.75
	c0,0.193,0.02,0.381,0.049,0.566l-9.531,2.683c-0.431-1.049-1.349-1.846-2.471-2.113l0.325-2.712c0.005,0,0.012,0.001,0.017,0.001
	c1.421,0,2.647-0.838,3.22-2.044L80.562,68.574z M70.96,73.925c0,1.8-1.46,3.26-3.259,3.26c-1.801,0-3.26-1.46-3.26-3.26
	c0-1.801,1.459-3.261,3.26-3.261C69.5,70.665,70.96,72.125,70.96,73.925z M57.19,83.474c-0.157,0.403-0.247,0.838-0.247,1.297
	c0,0.999,0.416,1.904,1.082,2.553l-2.126,2.757c-0.538-0.326-1.165-0.517-1.837-0.517c-0.075,0-0.148,0.006-0.222,0.013
	l-1.079-6.035c0.786-0.235,1.458-0.737,1.914-1.398L57.19,83.474z M53.038,89.717c-0.699,0.21-1.307,0.628-1.753,1.184l-2.491-1.569
	c0.225-0.468,0.355-0.988,0.355-1.542c0-0.976-0.395-1.859-1.031-2.504l1.722-2.144c0.55,0.348,1.2,0.553,1.897,0.553
	c0.075,0,0.148-0.006,0.222-0.013L53.038,89.717z M48.844,87.79c0,1.801-1.46,3.26-3.26,3.26c-1.8,0-3.26-1.459-3.26-3.26
	c0-1.799,1.459-3.259,3.26-3.259C47.384,84.531,48.844,85.991,48.844,87.79z M45.546,91.354c0.013,0,0.025,0.002,0.038,0.002
	c1.122,0,2.123-0.522,2.777-1.335l2.491,1.57c-0.225,0.467-0.355,0.988-0.355,1.541c0,0.39,0.065,0.766,0.183,1.117l-3.297,1.526
	c-0.485-0.789-1.268-1.377-2.191-1.602L45.546,91.354z M47.728,96.515l3.296-1.526c0.627,1.022,1.753,1.709,3.039,1.709
	c0.33,0,0.647-0.05,0.951-0.134l2.726,6.731c-0.45,0.247-0.838,0.59-1.144,0.999l-8.987-5.232c0.192-0.438,0.301-0.92,0.301-1.43
	C47.909,97.241,47.844,96.866,47.728,96.515z M56.182,104.997c-0.192,0.438-0.301,0.92-0.301,1.428c0,0.317,0.045,0.624,0.123,0.916
	l-7.618,2.997c-0.573-1.072-1.678-1.816-2.959-1.883l-0.456-7.316c0.906-0.161,1.693-0.665,2.224-1.374L56.182,104.997z
	 M61.132,109.565c0.618-0.332,1.125-0.842,1.457-1.46l2.638,1.042c-0.079,0.296-0.125,0.604-0.125,0.924
	c0,1.261,0.66,2.369,1.652,3.004l-1.184,2.433c-0.37-0.13-0.766-0.205-1.181-0.205c-0.32,0-0.631,0.047-0.927,0.126L61.132,109.565z
	 M67.486,113.431c0.37,0.131,0.767,0.206,1.182,0.206c0.629,0,1.22-0.165,1.733-0.452l1.645,2.287
	c-0.685,0.624-1.125,1.51-1.164,2.495l-2.993,0.228c-0.188-0.978-0.775-1.812-1.585-2.33L67.486,113.431z M74.44,114.848
	c1.8,0,3.259,1.458,3.259,3.259s-1.459,3.261-3.259,3.261c-1.801,0-3.261-1.46-3.261-3.261S72.639,114.848,74.44,114.848z
	 M77.767,119.378c0.151-0.395,0.238-0.823,0.238-1.271c0-1.104-0.506-2.092-1.297-2.748l1.659-2.558
	c0.478,0.238,1.014,0.375,1.583,0.375c0.154,0,0.305-0.013,0.455-0.032l1.525,6.168c-0.699,0.262-1.297,0.733-1.709,1.342
	L77.767,119.378z M81.195,112.946c0.67-0.251,1.243-0.694,1.654-1.267l2.713,1.5c-0.172,0.419-0.27,0.877-0.27,1.357
	c0,1.059,0.467,2.009,1.203,2.662l-1.621,2.315c-0.506-0.276-1.085-0.431-1.699-0.431c-0.154,0-0.304,0.013-0.454,0.032
	L81.195,112.946z M96.941,116.897c1.8,0,3.259,1.46,3.259,3.259c0,1.801-1.459,3.261-3.259,3.261c-1.801,0-3.26-1.46-3.26-3.261
	C93.681,118.357,95.14,116.897,96.941,116.897z M100.507,120.156c0-0.748-0.234-1.443-0.629-2.018l3.783-3.297
	c0.3,0.272,0.643,0.499,1.022,0.658l-3.469,11.985c-0.194-0.032-0.39-0.054-0.593-0.054c-0.258,0-0.509,0.03-0.752,0.082
	l-1.404-4.138C99.668,122.804,100.507,121.577,100.507,120.156z M102.798,112.211c0-1.801,1.46-3.261,3.261-3.261
	c1.8,0,3.26,1.46,3.26,3.261s-1.46,3.261-3.26,3.261C104.258,115.472,102.798,114.012,102.798,112.211z M108.04,109.248l2.248-4.371
	c0.391,0.148,0.813,0.232,1.256,0.232c0.356,0,0.7-0.054,1.026-0.152l1.54,3.58c-1.016,0.585-1.715,1.654-1.782,2.892l-2.76,0.165
	C109.396,110.618,108.832,109.78,108.04,109.248z M111.544,104.805c-1.801,0-3.261-1.46-3.261-3.261s1.46-3.261,3.261-3.261
	s3.26,1.46,3.26,3.261S113.345,104.805,111.544,104.805z M114.035,98.997l2.368-3.049c0.539,0.328,1.169,0.521,1.847,0.521
	c0.251,0,0.497-0.026,0.733-0.077l0.929,2.787c-1.006,0.472-1.76,1.396-1.987,2.512l-2.821-0.246
	C115.078,100.489,114.675,99.623,114.035,98.997z M118.25,96.165c-1.801,0-3.261-1.46-3.261-3.261s1.46-3.26,3.261-3.26
	c1.8,0,3.26,1.459,3.26,3.26S120.049,96.165,118.25,96.165z M115.396,78.643c-1.8,0-3.26-1.46-3.26-3.261c0-1.8,1.46-3.26,3.26-3.26
	c1.8,0,3.26,1.459,3.26,3.26C118.657,77.183,117.197,78.643,115.396,78.643z M112.717,73.038l-13.21-9.116
	c0.267-0.5,0.42-1.07,0.42-1.675c0-1.077-0.482-2.042-1.239-2.696l6.25-9.19c0.494,0.261,1.056,0.41,1.653,0.41
	c0.229,0,0.451-0.023,0.667-0.065l6.695,21.42C113.476,72.337,113.056,72.651,112.717,73.038z M99.622,62.247
	c0,1.801-1.46,3.26-3.261,3.26c-1.8,0-3.26-1.459-3.26-3.26s1.46-3.259,3.26-3.259C98.162,58.987,99.622,60.446,99.622,62.247z
	 M96.366,58.682c-0.002,0-0.003,0-0.005,0c-1.198,0-2.258,0.596-2.905,1.506l-2.542-1.396c0.169-0.416,0.266-0.87,0.266-1.346
	c0-0.439-0.083-0.859-0.23-1.248l3.595-1.837c0.494,0.741,1.259,1.284,2.152,1.494L96.366,58.682z M94.174,53.634l-3.594,1.837
	c-0.491-0.735-1.249-1.275-2.132-1.489l0.369-3.017c0.009,0,0.017,0.001,0.026,0.001c1.173,0,2.212-0.572,2.863-1.449l2.532,1.456
	c-0.188,0.434-0.292,0.911-0.292,1.412C93.945,52.825,94.028,53.245,94.174,53.634z M88.843,50.661c-1.8,0-3.26-1.459-3.26-3.259
	c0-1.801,1.46-3.26,3.26-3.26c1.801,0,3.259,1.459,3.259,3.26C92.102,49.201,90.644,50.661,88.843,50.661z M79.842,54.618
	c-1.801,0-3.261-1.459-3.261-3.26c0-1.8,1.46-3.26,3.261-3.26c1.799,0,3.259,1.46,3.259,3.26
	C83.102,53.159,81.642,54.618,79.842,54.618z M77.85,54.313c0.319,0.216,0.677,0.378,1.059,0.482l-0.428,2.823
	c-0.043-0.001-0.085-0.006-0.128-0.006c-1.966,0-3.566,1.599-3.566,3.566c0,0.233,0.024,0.46,0.067,0.681l-2.734,0.866
	c-0.161-0.357-0.379-0.682-0.642-0.964L77.85,54.313z M72.13,64.184c0,1.8-1.46,3.26-3.261,3.26s-3.259-1.46-3.259-3.26
	s1.458-3.26,3.259-3.26S72.13,62.383,72.13,64.184z M65.637,65.677c0.453,0.978,1.336,1.716,2.406,1.971l-0.325,2.712
	c-0.005,0-0.011-0.001-0.017-0.001c-1.739,0-3.188,1.25-3.501,2.899l-16.169-1.19c-0.008-0.196-0.028-0.388-0.066-0.574
	L65.637,65.677z M47.974,72.882l16.168,1.19c0.011,0.259,0.049,0.511,0.114,0.754l-9.366,3.64c-0.599-1.131-1.786-1.904-3.152-1.904
	c-0.782,0-1.503,0.256-2.092,0.684l-2.479-2.701C47.569,74.08,47.854,73.51,47.974,72.882z M51.738,76.869
	c1.8,0,3.26,1.46,3.26,3.26c0,1.801-1.46,3.26-3.26,3.26c-1.801,0-3.26-1.459-3.26-3.26C48.478,78.329,49.937,76.869,51.738,76.869z
	 M49.204,82.634l-1.722,2.144c-0.55-0.347-1.2-0.553-1.897-0.553c-0.765,0-1.472,0.244-2.054,0.656l-1.963-2.195
	c0.487-0.548,0.812-1.243,0.888-2.011l5.75-0.086C48.308,81.38,48.668,82.092,49.204,82.634z M42.924,85.425
	c-0.561,0.63-0.905,1.458-0.905,2.365c0,0.187,0.019,0.369,0.047,0.549l-2.641,0.727c-0.362-0.892-1.075-1.605-1.968-1.968
	l0.901-3.261c0.18,0.03,0.363,0.047,0.55,0.047c0.765,0,1.472-0.245,2.053-0.656L42.924,85.425z M39.639,89.852l2.641-0.727
	c0.426,1.05,1.339,1.853,2.457,2.125l-0.354,2.818c-0.013,0-0.025-0.002-0.038-0.002c-0.918,0-1.753,0.352-2.387,0.924l-2.911-2.56
	c0.401-0.576,0.639-1.275,0.639-2.03C39.686,90.212,39.667,90.032,39.639,89.852z M44.344,94.373c1.8,0,3.26,1.46,3.26,3.259
	c0,1.801-1.459,3.261-3.26,3.261s-3.26-1.46-3.26-3.261C41.084,95.833,42.544,94.373,44.344,94.373z M45.241,108.751
	c1.801,0,3.26,1.46,3.26,3.261s-1.459,3.261-3.26,3.261c-1.8,0-3.259-1.46-3.259-3.261S43.44,108.751,45.241,108.751z
	 M51.909,115.315c0-1.801,1.459-3.261,3.26-3.261s3.26,1.46,3.26,3.261c0,1.799-1.459,3.259-3.26,3.259
	S51.909,117.114,51.909,115.315z M58.325,116.968l2.617,1.008c-0.074,0.285-0.118,0.583-0.118,0.892
	c0,1.218,0.613,2.292,1.545,2.936l-2.321,4.373c-0.403-0.159-0.84-0.251-1.3-0.251c-0.16,0-0.316,0.015-0.471,0.036l-1.847-7.316
	C57.248,118.334,57.922,117.733,58.325,116.968z M61.129,118.867c0-1.801,1.46-3.261,3.259-3.261c1.801,0,3.261,1.46,3.261,3.261
	s-1.46,3.261-3.261,3.261C62.589,122.128,61.129,120.668,61.129,118.867z M67.947,119.007l2.993-0.225
	c0.205,1.067,0.888,1.968,1.818,2.467l-1.027,2.594c-0.295-0.079-0.603-0.124-0.924-0.124c-0.666,0-1.287,0.187-1.821,0.506
	l-2.128-2.791C67.501,120.816,67.911,119.959,67.947,119.007z M70.807,124.023c1.801,0,3.261,1.46,3.261,3.261
	s-1.46,3.261-3.261,3.261c-1.8,0-3.259-1.46-3.259-3.261S69.007,124.023,70.807,124.023z M74.374,127.284
	c0-0.298-0.041-0.586-0.109-0.86l5.74-2.152c0.252,0.489,0.613,0.911,1.052,1.237l-4.239,7.359
	c-0.435-0.188-0.913-0.294-1.415-0.294c-0.447,0-0.874,0.086-1.268,0.236l-1.333-2.57C73.749,129.597,74.374,128.513,74.374,127.284
	z M79.915,122.649c0-1.801,1.46-3.261,3.259-3.261c1.801,0,3.26,1.46,3.26,3.261s-1.459,3.261-3.26,3.261
	C81.375,125.91,79.915,124.45,79.915,122.649z M86.741,122.649c0-0.077-0.007-0.154-0.012-0.229l6.8-1.23
	c0.196,0.645,0.571,1.211,1.066,1.646l-2.027,2.933c-0.5-0.269-1.071-0.421-1.677-0.421c-0.969,0-1.847,0.391-2.49,1.019
	l-2.223-1.803C86.533,124.008,86.741,123.353,86.741,122.649z M90.891,125.654c1.801,0,3.259,1.46,3.259,3.259
	c0,1.801-1.458,3.261-3.259,3.261s-3.26-1.46-3.26-3.261C87.631,127.114,89.09,125.654,90.891,125.654z M100.621,127.738
	c1.799,0,3.259,1.458,3.259,3.259s-1.46,3.261-3.259,3.261c-1.801,0-3.261-1.46-3.261-3.261S98.82,127.738,100.621,127.738z
	 M109.264,113.764c0.201-0.414,0.324-0.873,0.351-1.357l2.76-0.163c0.294,1.672,1.754,2.948,3.508,2.948
	c0.331,0,0.649-0.05,0.954-0.136l1.071,2.637c-0.41,0.226-0.769,0.527-1.06,0.888L109.264,113.764z M115.883,114.885
	c-1.8,0-3.259-1.46-3.259-3.261c0-1.799,1.459-3.259,3.259-3.259c1.801,0,3.261,1.46,3.261,3.259
	C119.144,113.425,117.684,114.885,115.883,114.885z M115.883,108.059c-0.357,0-0.7,0.054-1.026,0.152l-1.54-3.578
	c0.872-0.504,1.512-1.359,1.72-2.375l2.82,0.246c0.03,1.11,0.568,2.093,1.39,2.725l-1.892,3.151
	C116.907,108.177,116.408,108.059,115.883,108.059z M118.157,102.408c0-1.801,1.46-3.261,3.261-3.261s3.26,1.46,3.26,3.261
	s-1.459,3.258-3.26,3.258S118.157,104.209,118.157,102.408z M121.418,98.841c-0.252,0-0.497,0.027-0.734,0.077l-0.929-2.787
	c1.216-0.568,2.06-1.799,2.06-3.227c0-0.352-0.052-0.692-0.149-1.014l19.772-8.429c0.058,0.101,0.12,0.199,0.188,0.293
	L123.78,99.743C123.15,99.184,122.325,98.841,121.418,98.841z M118.944,75.735c0.012-0.116,0.018-0.234,0.018-0.353
	c0-0.772-0.25-1.486-0.669-2.071l13.752-12.439c0.628,0.552,1.449,0.89,2.35,0.89c0.357,0,0.702-0.054,1.028-0.152l7.333,17
	c-0.743,0.429-1.315,1.117-1.597,1.94L118.944,75.735z M106.591,50.464c-1.801,0-3.26-1.46-3.26-3.26c0-1.8,1.459-3.26,3.26-3.26
	s3.261,1.459,3.261,3.26C109.852,49.004,108.392,50.464,106.591,50.464z M103.721,49.311c0.159,0.216,0.341,0.415,0.543,0.59
	l-6.25,9.19c-0.263-0.138-0.543-0.242-0.839-0.312l0.329-2.828c0.002,0,0.004,0,0.006,0c1.966,0,3.565-1.6,3.565-3.566
	c0-0.497-0.103-0.971-0.288-1.401L103.721,49.311z M100.771,52.386c0,1.801-1.46,3.26-3.26,3.26c-1.801,0-3.26-1.459-3.26-3.26
	c0-1.8,1.459-3.259,3.26-3.259C99.311,49.126,100.771,50.586,100.771,52.386z M97.264,48.833c-1.072,0.074-2.013,0.622-2.616,1.437
	l-2.533-1.456c0.188-0.434,0.292-0.911,0.292-1.412c0-0.462-0.09-0.902-0.251-1.308l2.873-1.533c0.542,0.78,1.386,1.333,2.363,1.489
	L97.264,48.833z M89.767,40.292c-1.8,0-3.26-1.46-3.26-3.26s1.46-3.26,3.26-3.26c1.801,0,3.261,1.459,3.261,3.26
	S91.567,40.292,89.767,40.292z M85.489,46.203c-0.134,0.375-0.211,0.777-0.211,1.198c0,0.366,0.056,0.719,0.159,1.052l-2.52,1.108
	c-0.619-1.056-1.764-1.769-3.074-1.769c-0.165,0-0.327,0.016-0.486,0.037l-0.706-2.752c0.71-0.273,1.311-0.766,1.719-1.396
	L85.489,46.203z M77.375,45.012c-1.801,0-3.26-1.459-3.26-3.26c0-1.8,1.459-3.26,3.26-3.26c1.8,0,3.26,1.46,3.26,3.26
	C80.635,43.553,79.175,45.012,77.375,45.012z M76.521,50.067c-0.157,0.401-0.246,0.835-0.246,1.291c0,0.936,0.366,1.786,0.957,2.422
	l-6.371,7.448c-0.506-0.343-1.106-0.554-1.75-0.598l-0.562-12.015c0.981-0.159,1.829-0.716,2.369-1.503L76.521,50.067z
	 M67.977,48.36c-1.8,0-3.26-1.46-3.26-3.26c0-1.8,1.46-3.26,3.26-3.26c1.801,0,3.26,1.46,3.26,3.26
	C71.237,46.9,69.777,48.36,67.977,48.36z M67.735,48.653l0.562,12.015c-1.49,0.242-2.67,1.407-2.935,2.889l-19.644-1.222
	c-0.027-0.522-0.165-1.016-0.395-1.455l19.948-13.464C65.877,48.122,66.751,48.586,67.735,48.653z M65.314,64.371
	c0.008,0.182,0.028,0.36,0.063,0.534l-17.67,5.818c-0.566-1.222-1.801-2.072-3.233-2.072c-0.144,0-0.285,0.011-0.424,0.027
	l-0.669-2.807c1.178-0.43,2.065-1.46,2.291-2.721L65.314,64.371z M44.473,68.956c1.801,0,3.26,1.459,3.26,3.26
	c0,1.799-1.459,3.259-3.26,3.259s-3.259-1.46-3.259-3.259C41.214,70.415,42.672,68.956,44.473,68.956z M42.804,75.365
	c0.499,0.265,1.066,0.416,1.669,0.416c0.782,0,1.503-0.256,2.092-0.684l2.48,2.701c-0.469,0.542-0.78,1.224-0.855,1.976l-5.75,0.086
	c-0.115-0.884-0.554-1.667-1.194-2.226L42.804,75.365z M42.167,80.319c0,1.8-1.459,3.26-3.259,3.26c-1.801,0-3.26-1.46-3.26-3.26
	c0-1.801,1.459-3.26,3.26-3.26C40.708,77.059,42.167,78.518,42.167,80.319z M36.12,87.14c1.8,0,3.26,1.459,3.26,3.26
	c0,1.799-1.46,3.259-3.26,3.259s-3.26-1.46-3.26-3.259C32.86,88.6,34.32,87.14,36.12,87.14z M36.12,93.966
	c0.918,0,1.754-0.352,2.387-0.924l2.911,2.56c-0.401,0.576-0.639,1.275-0.639,2.03c0,0.004,0,0.006,0,0.008l-5.929,0.695
	c-0.204-0.862-0.72-1.606-1.424-2.102l1.368-2.527C35.204,93.871,35.651,93.966,36.12,93.966z M34.949,99.145l5.928-0.694
	c0.155,0.654,0.487,1.241,0.948,1.702l-3.459,4.36c-0.546-0.341-1.189-0.54-1.879-0.54c-0.533,0-1.037,0.12-1.491,0.33l-1.424-2.341
	c0.837-0.651,1.378-1.668,1.378-2.809C34.949,99.149,34.949,99.147,34.949,99.145z M36.485,104.277c1.801,0,3.26,1.46,3.26,3.261
	s-1.459,3.258-3.26,3.258c-1.8,0-3.26-1.457-3.26-3.258S34.685,104.277,36.485,104.277z M36.485,111.103
	c1.237,0,2.328-0.632,2.967-1.591l2.453,1.252c-0.146,0.391-0.229,0.809-0.229,1.248c0,0.315,0.045,0.617,0.122,0.909l-5.636,2.201
	c-0.342-0.643-0.876-1.168-1.524-1.5l0.986-2.629C35.9,111.062,36.188,111.103,36.485,111.103z M36.456,115.881l5.636-2.201
	c0.571,1.074,1.676,1.82,2.958,1.889l0.201,3.277c-1.053,0.187-1.945,0.834-2.463,1.729l-6.362-2.753
	c0.099-0.326,0.153-0.671,0.153-1.031C36.578,116.475,36.533,116.173,36.456,115.881z M49.167,123.715
	c0.174-0.421,0.271-0.879,0.271-1.361c0-0.663-0.185-1.28-0.5-1.812l3.655-2.768c0.65,0.68,1.562,1.106,2.574,1.106
	c0.16,0,0.317-0.016,0.471-0.037l1.847,7.316c-0.661,0.251-1.229,0.692-1.635,1.259L49.167,123.715z M58.748,126.231
	c1.801,0,3.26,1.46,3.26,3.261c0,1.799-1.459,3.258-3.26,3.258c-1.8,0-3.26-1.459-3.26-3.258
	C55.488,127.691,56.948,126.231,58.748,126.231z M60.768,126.555l2.322-4.371c0.403,0.159,0.84,0.249,1.299,0.249
	c0.667,0,1.288-0.187,1.821-0.506l2.127,2.791c-0.673,0.649-1.095,1.559-1.095,2.566c0,0.079,0.006,0.156,0.012,0.235l-5.096,0.933
	C61.921,127.674,61.423,127.01,60.768,126.555z M62.302,129.254l5.096-0.933c0.446,1.462,1.805,2.527,3.41,2.527
	c0.447,0,0.874-0.085,1.268-0.235l1.333,2.57c-0.476,0.321-0.871,0.757-1.146,1.265l-10.077-4.023
	c0.081-0.298,0.128-0.611,0.128-0.933C62.313,129.41,62.307,129.333,62.302,129.254z M75.401,132.879c1.8,0,3.259,1.46,3.259,3.261
	s-1.459,3.261-3.259,3.261c-1.801,0-3.261-1.46-3.261-3.261S73.601,132.879,75.401,132.879z M78.434,134.274
	c-0.239-0.388-0.549-0.725-0.914-0.994l4.24-7.359c0.434,0.188,0.912,0.293,1.415,0.293c0.969,0,1.847-0.39,2.49-1.018l2.223,1.805
	c-0.355,0.553-0.563,1.209-0.563,1.912c0,0.395,0.068,0.774,0.187,1.128L78.434,134.274z M92.427,132.127
	c0.861-0.414,1.53-1.16,1.839-2.073l2.807,0.601c-0.012,0.113-0.019,0.227-0.019,0.343c0,1.053,0.461,1.996,1.187,2.649
	l-1.974,2.782c-0.509-0.28-1.095-0.441-1.717-0.441c-0.263,0-0.519,0.03-0.765,0.084L92.427,132.127z M104.119,131.674
	c0.043-0.218,0.066-0.445,0.066-0.677c0-0.463-0.091-0.905-0.253-1.312l12.756-6.834c0.511,0.735,1.29,1.27,2.194,1.46l-0.806,8.665
	c-1.414,0.03-2.626,0.888-3.174,2.107L104.119,131.674z M121.471,117.78c-0.542-0.33-1.175-0.524-1.854-0.524
	c-0.33,0-0.648,0.049-0.953,0.133l-1.071-2.637c1.105-0.605,1.856-1.779,1.856-3.128c0-0.066-0.007-0.136-0.011-0.202l5.635-0.978
	c0.173,0.59,0.495,1.115,0.921,1.535L121.471,117.78z M124.937,109.641l-5.635,0.978c-0.217-0.73-0.66-1.361-1.249-1.815
	l1.892-3.151c0.449,0.203,0.948,0.321,1.473,0.321c0.84,0,1.612-0.294,2.222-0.782l2.056,2.043c-0.48,0.606-0.77,1.372-0.77,2.206
	C124.926,109.508,124.933,109.574,124.937,109.641z M124.215,104.611c0.479-0.606,0.768-1.372,0.768-2.203
	c0-0.768-0.245-1.476-0.658-2.059l17.846-15.988c0.076,0.068,0.156,0.133,0.239,0.195l-12.498,21.613
	c-0.435-0.19-0.916-0.298-1.419-0.298c-0.84,0-1.612,0.294-2.223,0.782L124.215,104.611z M141.272,81.699
	c0-1.801,1.46-3.261,3.261-3.261c1.8,0,3.26,1.46,3.26,3.261c0,1.801-1.46,3.259-3.26,3.259
	C142.732,84.958,141.272,83.5,141.272,81.699z M137.835,59.12c0.079-0.295,0.125-0.604,0.125-0.923c0-0.742-0.229-1.431-0.618-2.002
	l2.151-1.854c0.636,0.587,1.482,0.949,2.414,0.949c0.662,0,1.282-0.185,1.814-0.501l5.976,7.87c-0.27,0.259-0.5,0.558-0.679,0.889
	L137.835,59.12z M137.655,58.197c0,1.801-1.46,3.26-3.259,3.26c-1.801,0-3.261-1.459-3.261-3.26c0-1.8,1.46-3.26,3.261-3.26
	C136.195,54.937,137.655,56.396,137.655,58.197z M131.251,56.516l-21.22-8.39c0.048-0.182,0.086-0.368,0.107-0.56l18.551-0.237
	c0.223,1.753,1.722,3.113,3.533,3.113c0.09,0,0.179-0.007,0.267-0.013l0.838,4.366C132.433,55.076,131.689,55.702,131.251,56.516z
	 M107.049,43.671c-0.151-0.019-0.303-0.033-0.458-0.033c-1.206,0-2.272,0.604-2.917,1.523l-2.407-1.302
	c0.165-0.41,0.258-0.857,0.258-1.326c0-0.678-0.194-1.31-0.524-1.851l6.559-5.105c0.361,0.368,0.802,0.655,1.293,0.84
	L107.049,43.671z M100.502,40.039c-0.369-0.375-0.82-0.667-1.323-0.851l0.632-2.641c0.141,0.017,0.282,0.028,0.428,0.028
	c1.819,0,3.322-1.37,3.536-3.132l2.782,0.02c0.057,0.535,0.236,1.032,0.502,1.469L100.502,40.039z M101.22,42.534
	c0,1.8-1.46,3.26-3.26,3.26c-1.801,0-3.261-1.46-3.261-3.26s1.46-3.26,3.261-3.26C99.76,39.273,101.22,40.733,101.22,42.534z
	 M98.388,38.997c-0.141-0.017-0.283-0.028-0.428-0.028c-1.084,0-2.056,0.488-2.711,1.254l-2.317-1.556
	c0.255-0.49,0.401-1.045,0.401-1.635c0-0.307-0.042-0.604-0.117-0.888l3.865-1.485c0.411,0.781,1.101,1.39,1.938,1.697
	L98.388,38.997z M87.264,34.497c-0.655,0.646-1.062,1.544-1.062,2.535c0,0.304,0.042,0.597,0.113,0.878l-5.777,2.201
	c-0.283-0.544-0.702-1.006-1.213-1.341l3.107-6.203c0.381,0.14,0.79,0.22,1.22,0.22c0.682,0,1.317-0.195,1.86-0.529L87.264,34.497z
	 M78.596,38.406c-0.382-0.14-0.791-0.22-1.22-0.22c-0.841,0-1.614,0.295-2.225,0.784l-7.383-7.327
	c0.408-0.518,0.678-1.147,0.749-1.837l11.601-0.135c0.133,1.059,0.731,1.974,1.584,2.534L78.596,38.406z M74.577,39.549
	c-0.479,0.606-0.768,1.371-0.768,2.203c0,0.276,0.035,0.545,0.095,0.804l-2.732,0.973c-0.582-1.179-1.794-1.995-3.196-1.995
	c-0.09,0-0.178,0.007-0.267,0.014l-1.672-8.707c0.425-0.134,0.816-0.347,1.156-0.62L74.577,39.549z M66.909,41.698
	c-0.465,0.146-0.887,0.387-1.249,0.697l-2-1.854c0.435-0.591,0.694-1.318,0.694-2.106c0-1.284-0.684-2.408-1.705-3.036l1.198-2.578
	c0.353,0.118,0.73,0.184,1.122,0.184c0.09,0,0.178-0.007,0.267-0.014L66.909,41.698z M65.106,42.994
	c-0.434,0.591-0.695,1.318-0.695,2.106c0,0.592,0.147,1.151,0.404,1.643L44.867,60.207c-0.069-0.081-0.142-0.159-0.217-0.233
	l14.298-18.49C59.486,41.809,60.115,42,60.79,42c0.885,0,1.693-0.326,2.317-0.861L65.106,42.994z M45.422,62.523
	c0,1.8-1.459,3.26-3.259,3.26c-1.801,0-3.26-1.459-3.26-3.26c0-1.801,1.459-3.26,3.26-3.26
	C43.963,59.263,45.422,60.723,45.422,62.523z M38.597,62.523c0,0.355,0.054,0.698,0.151,1.022l-2.985,1.281
	c-0.519-0.902-1.419-1.555-2.481-1.74l0.162-2.813c1.02-0.059,1.927-0.543,2.542-1.283l2.989,1.945
	C38.735,61.415,38.597,61.953,38.597,62.523z M36.087,65.574l2.985-1.281c0.616,1.071,1.769,1.795,3.091,1.795
	c0.144,0,0.285-0.011,0.424-0.027l0.669,2.807c-0.75,0.274-1.383,0.792-1.801,1.459l-5.412-2.578
	c0.125-0.362,0.195-0.749,0.195-1.153C36.238,66.241,36.184,65.898,36.087,65.574z M41.104,71.062
	c-0.125,0.363-0.196,0.75-0.196,1.154c0,1.071,0.477,2.03,1.227,2.685l-1.558,2.269c-0.499-0.265-1.066-0.417-1.668-0.417
	c-0.382,0-0.75,0.062-1.094,0.174l-3.308-7.279c0.481-0.29,0.887-0.688,1.185-1.163L41.104,71.062z M37.073,77.266
	c-1.036,0.625-1.731,1.758-1.731,3.053c0,0.207,0.021,0.409,0.056,0.606l-2.68,0.788c-0.404-0.951-1.21-1.691-2.203-2.007
	l1.875-9.558c0.093,0.007,0.187,0.015,0.282,0.015c0.382,0,0.749-0.062,1.093-0.174L37.073,77.266z M32.694,83.101
	c0,1.801-1.46,3.261-3.26,3.261s-3.26-1.46-3.26-3.261c0-1.8,1.459-3.26,3.26-3.26S32.694,81.301,32.694,83.101z M27.173,85.856
	c0.616,0.506,1.403,0.81,2.261,0.81c0.781,0,1.501-0.255,2.089-0.682l1.907,2.082c-0.542,0.626-0.874,1.438-0.875,2.328
	l-9.082,1.029c-0.116-0.504-0.34-0.966-0.645-1.363L27.173,85.856z M23.568,92.231l9.082-1.029c0.201,0.87,0.72,1.619,1.428,2.116
	l-1.368,2.527c-0.411-0.165-0.857-0.26-1.327-0.26c-1.141,0-2.156,0.543-2.809,1.379l-5.336-3.248
	C23.447,93.265,23.567,92.763,23.568,92.231z M31.383,95.893c1.801,0,3.26,1.46,3.26,3.261c0,1.799-1.459,3.259-3.26,3.259
	c-1.8,0-3.26-1.46-3.26-3.259C28.123,97.353,29.583,95.893,31.383,95.893z M31.383,102.719c0.534,0,1.037-0.122,1.492-0.332
	l1.424,2.341c-0.837,0.653-1.378,1.668-1.378,2.811c0,0.443,0.085,0.868,0.235,1.263l-9.949,5.141
	c-0.186-0.276-0.409-0.523-0.662-0.735l7.222-10.88C30.251,102.575,30.8,102.719,31.383,102.719z M33.527,109.525
	c0.336,0.499,0.796,0.904,1.333,1.181l-0.986,2.629c-0.276-0.069-0.564-0.109-0.862-0.109c-1.746,0-3.199,1.263-3.504,2.919
	l-5.705-0.386c-0.018-0.384-0.096-0.75-0.226-1.093L33.527,109.525z M23.751,116.573l5.704,0.387
	c0.067,1.423,0.971,2.632,2.234,3.138l-0.712,2.618c-0.176-0.028-0.354-0.045-0.536-0.045c-0.83,0-1.591,0.287-2.198,0.763
	l-5.218-5.275C23.388,117.706,23.643,117.165,23.751,116.573z M29.752,116.79c0-1.801,1.46-3.259,3.26-3.259
	c1.801,0,3.26,1.458,3.26,3.259s-1.459,3.261-3.26,3.261C31.212,120.051,29.752,118.591,29.752,116.79z M32.476,120.312
	c0.176,0.025,0.354,0.043,0.537,0.043c1.318,0,2.469-0.721,3.086-1.786l6.363,2.753c-0.099,0.326-0.153,0.673-0.153,1.031
	c0,0.158,0.014,0.314,0.034,0.467l-8.569,2.157c-0.354-0.933-1.085-1.679-2.009-2.05L32.476,120.312z M45.524,131.11
	c-0.035,0.197-0.057,0.401-0.057,0.609c0,1.168,0.566,2.201,1.436,2.853l-5.491,9.439c-0.438-0.19-0.92-0.3-1.428-0.3
	c-0.38,0-0.747,0.062-1.091,0.171l-6.62-14.595c0.641-0.386,1.154-0.965,1.449-1.659L45.524,131.11z M47.605,134.984
	c0.266,0.118,0.55,0.201,0.845,0.249l-0.749,15.029c-0.868,0.056-1.652,0.423-2.242,0.99l-2.485-2.043
	c0.361-0.557,0.574-1.22,0.574-1.934c0-1.166-0.566-2.201-1.435-2.851L47.605,134.984z M45.773,131.72
	c0-1.799,1.459-3.259,3.26-3.259s3.26,1.46,3.26,3.259c0,1.801-1.459,3.26-3.26,3.26S45.773,133.521,45.773,131.72z M49.265,135.273
	c1.858-0.12,3.334-1.665,3.334-3.554c0-0.134-0.008-0.264-0.023-0.395l2.815-0.646c0.282,0.793,0.834,1.455,1.548,1.878L49,150.415
	c-0.157-0.05-0.319-0.086-0.484-0.111L49.265,135.273z M60.457,132.62c0.604-0.333,1.102-0.832,1.429-1.437l10.078,4.023
	c-0.082,0.298-0.129,0.609-0.129,0.933c0,1.565,1.015,2.895,2.421,3.372l-3.354,15.534c-0.115-0.014-0.23-0.02-0.349-0.02
	c-0.33,0-0.649,0.049-0.953,0.133L60.457,132.62z M75.052,139.688c0.115,0.011,0.231,0.018,0.35,0.018
	c0.214,0,0.423-0.021,0.628-0.059l3.117,10.376c-1.267,0.549-2.157,1.81-2.157,3.276c0,0.456,0.09,0.892,0.248,1.294l-3.745,1.983
	c-0.432-0.628-1.059-1.108-1.793-1.357L75.052,139.688z M77.295,153.299c0-1.801,1.46-3.261,3.261-3.261
	c1.799,0,3.259,1.46,3.259,3.261c0,1.8-1.46,3.258-3.259,3.258C78.755,156.557,77.295,155.099,77.295,153.299z M82.795,150.526
	c-0.613-0.495-1.391-0.795-2.239-0.795c-0.216,0-0.425,0.023-0.628,0.06l-3.118-10.378c0.959-0.413,1.702-1.239,2.006-2.251
	l12.181,2.172c-0.005,0.073-0.012,0.146-0.012,0.219c0,0.825,0.285,1.582,0.757,2.188L82.795,150.526z M91.29,139.553
	c0-1.801,1.46-3.261,3.26-3.261c1.801,0,3.261,1.46,3.261,3.261s-1.46,3.259-3.261,3.259C92.75,142.812,91.29,141.354,91.29,139.553
	z M98.115,139.553c0-0.015-0.002-0.03-0.002-0.045l16.584-2.118c0.14,0.563,0.412,1.074,0.784,1.498l-11.257,12.447
	c-0.585-0.418-1.298-0.669-2.071-0.669c-0.446,0-0.872,0.088-1.266,0.237l-4.347-8.395
	C97.489,141.868,98.115,140.783,98.115,139.553z M114.896,136.536c0-1.801,1.459-3.258,3.26-3.258s3.26,1.457,3.26,3.258
	s-1.459,3.261-3.26,3.261S114.896,138.337,114.896,136.536z M121.628,137.334l2.847,0.317c0.004,1.363,0.781,2.549,1.915,3.143
	l-1.307,3.402c-0.285-0.073-0.582-0.118-0.889-0.118c-0.472,0-0.921,0.095-1.333,0.262l-2.657-4.888
	C120.911,138.952,121.429,138.202,121.628,137.334z M127.759,147.646c0-0.199-0.021-0.393-0.051-0.581l4.147-1.186
	c0.402,0.965,1.215,1.717,2.221,2.034l-0.543,2.811c-0.09-0.007-0.179-0.013-0.271-0.013c-1.033,0-1.961,0.443-2.613,1.149
	l-3.357-2.455C127.588,148.885,127.759,148.284,127.759,147.646z M131.888,144.514c0-1.801,1.46-3.261,3.26-3.261
	c1.801,0,3.26,1.46,3.26,3.261s-1.459,3.26-3.26,3.26C133.348,147.773,131.888,146.314,131.888,144.514z M137.138,141.557
	c-0.568-0.384-1.254-0.608-1.99-0.608c-0.858,0-1.646,0.305-2.261,0.811l-2.022-1.955c0.416-0.543,0.679-1.205,0.728-1.926
	l6.457-0.302c0.116,0.71,0.439,1.346,0.908,1.853L137.138,141.557z M138.012,136.762l-6.457,0.302
	c-0.107-0.66-0.395-1.261-0.812-1.747l3.789-4.093c0.592,0.436,1.317,0.695,2.105,0.695c0.496,0,0.969-0.104,1.398-0.287
	l1.425,2.499C138.638,134.735,138.084,135.684,138.012,136.762z M136.637,131.612c-1.801,0-3.261-1.458-3.261-3.259
	s1.46-3.261,3.261-3.261c1.799,0,3.259,1.46,3.259,3.261S138.436,131.612,136.637,131.612z M133.12,127.792l-3.086-0.135
	c-0.08-1.139-0.695-2.131-1.598-2.728l1.29-2.562c0.384,0.142,0.795,0.221,1.228,0.221c0.534,0,1.038-0.12,1.492-0.332l2.003,3.288
	C133.751,126.088,133.265,126.883,133.12,127.792z M130.953,122.284c-1.801,0-3.261-1.459-3.261-3.26s1.46-3.261,3.261-3.261
	c1.799,0,3.259,1.46,3.259,3.261S132.752,122.284,130.953,122.284z M127.386,119.024c0,0.051,0.005,0.101,0.007,0.151l-4.345,0.688
	c-0.17-0.608-0.495-1.153-0.934-1.584l4.523-5.801c0.541,0.33,1.175,0.524,1.854,0.524c0.165,0,0.326-0.015,0.484-0.036l0.701,2.731
	C128.34,116.214,127.386,117.509,127.386,119.024z M128.493,112.698c-1.801,0-3.261-1.46-3.261-3.259
	c0-1.801,1.46-3.261,3.261-3.261c1.799,0,3.259,1.46,3.259,3.261C131.752,111.238,130.292,112.698,128.493,112.698z
	 M130.616,106.579l12.497-21.611c0.437,0.188,0.916,0.296,1.42,0.296c1.075,0,2.039-0.48,2.693-1.237l6.537,4.455
	c-0.261,0.495-0.41,1.059-0.41,1.657c0,0.596,0.149,1.158,0.408,1.651l-22.571,15.323
	C131.019,106.916,130.826,106.738,130.616,106.579z M156.919,86.574c-1.075,0-2.039,0.48-2.694,1.237l-6.537-4.457
	c0.262-0.495,0.411-1.057,0.411-1.655c0-0.639-0.172-1.238-0.467-1.757l10.675-7.792c0.414,0.448,0.939,0.792,1.535,0.982
	L157.2,86.589C157.107,86.581,157.014,86.574,156.919,86.574z M152.162,68.49c-1.801,0-3.26-1.459-3.26-3.26s1.459-3.259,3.26-3.259
	c1.799,0,3.26,1.458,3.26,3.259S153.961,68.49,152.162,68.49z M150.347,62.166l-5.976-7.87c0.678-0.649,1.102-1.561,1.102-2.571
	c0-1.718-1.221-3.155-2.84-3.491l0.254-2.811c0.293-0.007,0.579-0.05,0.85-0.125l6.729,16.796
	C150.425,62.116,150.388,62.142,150.347,62.166z M145.167,51.724c0,1.8-1.459,3.26-3.259,3.26c-1.801,0-3.261-1.46-3.261-3.26
	s1.46-3.26,3.261-3.26C143.708,48.464,145.167,49.924,145.167,51.724z M138.562,50.505c-0.139,0.381-0.22,0.791-0.22,1.219
	c0,0.742,0.229,1.431,0.618,2.002l-2.151,1.854c-0.636-0.587-1.482-0.948-2.413-0.948c-0.09,0-0.179,0.007-0.267,0.014l-0.838-4.366
	c0.794-0.25,1.468-0.771,1.916-1.454L138.562,50.505z M132.223,50.137c-1.801,0-3.26-1.459-3.26-3.26c0-1.8,1.459-3.26,3.26-3.26
	s3.261,1.459,3.261,3.26C135.483,48.677,134.023,50.137,132.223,50.137z M122.047,32.396c-1.8,0-3.26-1.459-3.26-3.26
	s1.46-3.26,3.26-3.26c1.801,0,3.261,1.459,3.261,3.26S123.848,32.396,122.047,32.396z M118.482,29.136
	c0,0.248,0.025,0.49,0.074,0.724l-5.222,1.725c-0.467-1.005-1.387-1.758-2.499-1.992l0.419-4.495
	c1.029-0.022,1.95-0.482,2.587-1.201l5.07,3.545C118.638,27.945,118.482,28.523,118.482,29.136z M113.362,33.082
	c0,1.8-1.46,3.26-3.261,3.26c-1.8,0-3.259-1.46-3.259-3.26c0-1.801,1.459-3.26,3.259-3.26
	C111.902,29.822,113.362,31.281,113.362,33.082z M107.459,30.698c-0.48,0.531-0.803,1.205-0.894,1.951l-2.781-0.021
	c-0.161-1.51-1.268-2.737-2.715-3.083l0.333-2.755c0.006,0,0.014,0.001,0.02,0.001c0.756,0,1.456-0.238,2.034-0.64L107.459,30.698z
	 M103.5,33.01c0,1.801-1.46,3.26-3.26,3.26c-1.801,0-3.26-1.459-3.26-3.26c0-1.8,1.459-3.26,3.26-3.26
	C102.04,29.75,103.5,31.209,103.5,33.01z M98.118,30.15c-0.563,0.419-0.998,1-1.237,1.674l-9.687-2.212
	c0.014-0.128,0.022-0.258,0.022-0.391c0-0.917-0.351-1.751-0.921-2.383l4.023-4.562c0.578,0.403,1.278,0.642,2.035,0.642
	c0.504,0,0.982-0.107,1.417-0.295L98.118,30.15z M86.911,29.222c0,1.8-1.46,3.26-3.26,3.26c-1.801,0-3.26-1.459-3.26-3.26
	s1.459-3.26,3.26-3.26C85.451,25.961,86.911,27.421,86.911,29.222z M80.104,28.855l-11.601,0.135
	c-0.105-0.83-0.495-1.571-1.071-2.124l3.377-4.452c0.533,0.316,1.151,0.502,1.814,0.502c0.907,0,1.733-0.344,2.364-0.903
	l5.755,5.151C80.397,27.653,80.169,28.229,80.104,28.855z M68.229,29.439c0,1.8-1.459,3.26-3.26,3.26s-3.259-1.46-3.259-3.26
	c0-1.8,1.458-3.26,3.259-3.26S68.229,27.639,68.229,29.439z M60.79,35.175c1.801,0,3.259,1.46,3.259,3.26
	c0,1.801-1.458,3.26-3.259,3.26c-1.8,0-3.26-1.459-3.26-3.26C57.529,36.635,58.989,35.175,60.79,35.175z M41.127,59.112
	c-0.677,0.206-1.269,0.607-1.71,1.139l-2.99-1.945c0.24-0.479,0.378-1.017,0.378-1.588c0-1.607-1.07-2.969-2.535-3.412l2.659-14.711
	c0.076,0.005,0.151,0.012,0.228,0.012c0.079,0,0.155-0.007,0.233-0.012L41.127,59.112z M36.5,56.718c0,1.8-1.459,3.26-3.26,3.26
	s-3.26-1.46-3.26-3.26s1.46-3.26,3.26-3.26S36.5,54.917,36.5,56.718z M32.672,63.336c1.801,0,3.26,1.459,3.26,3.26
	c0,1.8-1.459,3.26-3.26,3.26s-3.26-1.46-3.26-3.26C29.413,64.795,30.872,63.336,32.672,63.336z M26.134,81.755
	c-0.17,0.416-0.266,0.87-0.266,1.346c0,0.817,0.278,1.565,0.74,2.167l-4.344,4.204c-0.616-0.508-1.404-0.812-2.261-0.812
	c-0.045,0-0.09,0.007-0.136,0.009l-1.328-8.628c0.804-0.221,1.493-0.714,1.964-1.376L26.134,81.755z M20.003,88.966
	c1.8,0,3.26,1.46,3.26,3.261c0,1.798-1.46,3.258-3.26,3.258s-3.26-1.46-3.26-3.258C16.743,90.426,18.203,88.966,20.003,88.966z
	 M17.213,94.439c0.181,0.229,0.39,0.433,0.621,0.611l-5.897,9.835c-0.331-0.152-0.688-0.253-1.063-0.296v-2.894
	c1.774-0.204,3.158-1.713,3.158-3.542c0-0.544-0.126-1.059-0.346-1.521L17.213,94.439z M18.532,95.471
	c0.449,0.203,0.946,0.321,1.471,0.321c1.142,0,2.157-0.542,2.81-1.378l5.335,3.247c-0.21,0.455-0.331,0.959-0.331,1.492
	c0,0.354,0.054,0.697,0.151,1.021l-14.411,6.185c-0.235-0.409-0.55-0.765-0.922-1.053L18.532,95.471z M20.247,112.668
	c1.801,0,3.26,1.46,3.26,3.261s-1.459,3.261-3.26,3.261c-1.8,0-3.259-1.46-3.259-3.261S18.447,112.668,20.247,112.668z
	 M22.445,118.73l5.217,5.275c-0.492,0.611-0.788,1.385-0.788,2.229c0,1.115,0.516,2.112,1.32,2.766l-3.2,5.022
	c-0.471-0.229-0.999-0.362-1.558-0.362c-0.041,0-0.08,0.005-0.121,0.007l-2.142-14.301C21.643,119.24,22.073,119.021,22.445,118.73z
	 M27.18,126.235c0-1.801,1.459-3.261,3.26-3.261c1.8,0,3.26,1.46,3.26,3.261s-1.46,3.261-3.26,3.261
	C28.64,129.496,27.18,128.036,27.18,126.235z M30.608,129.792c0.321-0.015,0.63-0.068,0.923-0.163l6.62,14.595
	c-0.752,0.455-1.325,1.175-1.582,2.032l-3.864-0.686c0.005-0.073,0.011-0.146,0.011-0.219c0-1.745-1.262-3.198-2.921-3.503
	L30.608,129.792z M36.43,147.06c-0.004,0.071-0.012,0.145-0.012,0.217c0,0.823,0.284,1.58,0.754,2.185l-2.625,2.57
	c-0.613-0.497-1.394-0.797-2.244-0.797c-0.252,0-0.498,0.027-0.734,0.077l-0.911-2.731c0.913-0.429,1.616-1.229,1.909-2.208
	L36.43,147.06z M36.724,147.276c0-1.801,1.459-3.259,3.26-3.259c1.801,0,3.26,1.458,3.26,3.259s-1.459,3.261-3.26,3.261
	C38.184,150.537,36.724,149.077,36.724,147.276z M42.458,149.841l2.485,2.043c-0.362,0.557-0.574,1.22-0.574,1.934
	c0,0.763,0.244,1.471,0.655,2.052l-2.091,1.867c-0.571-0.511-1.306-0.837-2.116-0.895l-0.269-6.047
	C41.283,150.677,41.944,150.336,42.458,149.841z M44.674,153.817c0-1.801,1.459-3.261,3.26-3.261c1.8,0,3.26,1.46,3.26,3.261
	s-1.46,3.258-3.26,3.258C46.133,157.075,44.674,155.618,44.674,153.817z M51.312,154.947l15.693,3.312
	c-0.011,0.109-0.017,0.221-0.017,0.332c0,0.841,0.293,1.612,0.781,2.224l-2.167,2.176c-0.607-0.48-1.373-0.77-2.207-0.77
	c-0.998,0-1.901,0.414-2.549,1.078l-9.868-7.641C51.116,155.436,51.229,155.197,51.312,154.947z M67.293,158.591
	c0-1.8,1.46-3.258,3.261-3.258c1.8,0,3.26,1.458,3.26,3.258c0,1.801-1.46,3.261-3.26,3.261
	C68.753,161.852,67.293,160.392,67.293,158.591z M73.562,160.499l3.112,1.505c-0.129,0.369-0.203,0.764-0.203,1.175
	c0,0.746,0.231,1.438,0.625,2.014l-2.125,1.841c-0.634-0.581-1.477-0.938-2.404-0.938c-0.079,0-0.155,0.006-0.232,0.011
	l-0.746-4.102C72.412,161.753,73.108,161.211,73.562,160.499z M76.776,163.179c0-1.801,1.46-3.261,3.26-3.261
	c1.801,0,3.261,1.46,3.261,3.261s-1.46,3.259-3.261,3.259C78.236,166.438,76.776,164.979,76.776,163.179z M82.941,161.119
	c-0.537-0.757-1.36-1.293-2.312-1.452l0.148-2.814c1.203-0.075,2.242-0.746,2.831-1.722l3.118,1.415
	c-0.111,0.346-0.172,0.712-0.172,1.094c0,0.476,0.095,0.931,0.267,1.349L82.941,161.119z M83.948,154.39
	c0.112-0.343,0.173-0.712,0.173-1.091c0-0.826-0.284-1.585-0.756-2.189l8.946-8.787c0.297,0.242,0.636,0.434,1.001,0.57
	l-2.748,11.212c-0.146-0.02-0.294-0.032-0.447-0.032c-1.295,0-2.428,0.696-3.052,1.734L83.948,154.39z M90.118,154.379
	c1.801,0,3.261,1.46,3.261,3.261s-1.46,3.259-3.261,3.259c-1.8,0-3.26-1.458-3.26-3.259S88.318,154.379,90.118,154.379z
	 M102.153,150.973c1.801,0,3.261,1.46,3.261,3.261s-1.46,3.258-3.261,3.258s-3.26-1.457-3.26-3.258S100.353,150.973,102.153,150.973
	z M104.828,151.884l11.258-12.449c0.584,0.418,1.298,0.667,2.07,0.667c0.472,0,0.921-0.095,1.333-0.26l2.657,4.888
	c-0.917,0.646-1.518,1.711-1.518,2.916c0,0.212,0.022,0.42,0.058,0.621l-15.256,4.561
	C105.28,152.479,105.075,152.162,104.828,151.884z M105.562,155.277l15.119,2.793c-0.005,0.079-0.012,0.161-0.012,0.242
	c0,1.966,1.599,3.565,3.565,3.565c0.099,0,0.194-0.007,0.291-0.016l0.555,2.796c-0.717,0.231-1.333,0.684-1.773,1.277l-17.881-10.29
	C105.477,155.525,105.523,155.403,105.562,155.277z M124.234,161.571c-1.801,0-3.26-1.458-3.26-3.259s1.459-3.261,3.26-3.261
	s3.261,1.46,3.261,3.261S126.035,161.571,124.234,161.571z M127.297,156.497c-0.559-0.939-1.533-1.602-2.669-1.729l-0.014-3.586
	c0.864-0.104,1.631-0.515,2.193-1.121l3.357,2.454c-0.297,0.521-0.468,1.121-0.468,1.761c0,0.375,0.058,0.734,0.166,1.073
	L127.297,156.497z M127.634,157.238l2.565-1.146c0.622,1.046,1.76,1.751,3.062,1.751c0.15,0,0.297-0.013,0.441-0.032l0.682,2.8
	c-0.726,0.269-1.341,0.766-1.757,1.404l-5.042-2.497c0.136-0.378,0.214-0.782,0.214-1.205
	C127.8,157.938,127.741,157.577,127.634,157.238z M133.261,157.536c-1.8,0-3.26-1.459-3.26-3.26c0-1.799,1.46-3.259,3.26-3.259
	c1.801,0,3.261,1.46,3.261,3.259C136.522,156.077,135.062,157.536,133.261,157.536z M138.391,145.986
	c0.205-0.448,0.323-0.948,0.323-1.473c0-0.938-0.366-1.788-0.958-2.425l1.819-2.129c0.569,0.384,1.253,0.608,1.99,0.608
	c0.05,0,0.101-0.006,0.151-0.008l0.884,5.575c-0.75,0.208-1.401,0.658-1.865,1.261L138.391,145.986z M141.565,140.262
	c-1.801,0-3.261-1.457-3.261-3.258s1.46-3.261,3.261-3.261c1.8,0,3.26,1.46,3.26,3.261S143.365,140.262,141.565,140.262z
	 M141.565,133.438c-0.497,0-0.97,0.101-1.4,0.285l-1.424-2.5c0.884-0.649,1.461-1.693,1.461-2.87c0-0.307-0.043-0.601-0.115-0.886
	l19.007-7.273c0.075,0.142,0.157,0.276,0.249,0.405l-15.41,13.746C143.303,133.781,142.474,133.438,141.565,133.438z
	 M139.796,126.707c-0.596-1.138-1.788-1.919-3.16-1.919c-0.534,0-1.039,0.12-1.493,0.331l-2.002-3.287
	c0.748-0.583,1.26-1.457,1.358-2.454l24.224-0.369c0.019,0.146,0.047,0.285,0.081,0.425L139.796,126.707z M158.707,118.194
	l-24.223,0.369c-0.01-0.069-0.02-0.138-0.031-0.204l25.975-8.095c0.433,0.976,1.292,1.72,2.339,2l-0.401,2.725
	c-0.036-0.002-0.072-0.006-0.111-0.006C160.408,114.983,158.886,116.394,158.707,118.194z M134.21,117.581
	c-0.555-1.247-1.806-2.122-3.257-2.122c-0.166,0-0.327,0.015-0.486,0.036l-0.701-2.73c1.236-0.475,2.143-1.614,2.275-2.98
	l28.113-0.493c0.011,0.066,0.019,0.131,0.029,0.195L134.21,117.581z M160.136,108.477l-28.112,0.493
	c-0.056-0.422-0.184-0.821-0.375-1.184l22.572-15.323c0.655,0.759,1.62,1.241,2.698,1.241c0.284,0,0.559-0.036,0.822-0.099
	l4.356,12.028C161.023,106.172,160.258,107.229,160.136,108.477z M160.564,99.008c0.545,0.986,1.544,1.688,2.712,1.82v4.454
	c-0.14,0.016-0.278,0.041-0.414,0.073L160.564,99.008z M162.927,93.805c-0.508,0.111-0.976,0.33-1.378,0.633l-1.901-2.009
	c0.522-0.62,0.838-1.417,0.838-2.29c0-1.589-1.046-2.937-2.484-3.396l2.641-13.456c0.075,0.006,0.152,0.011,0.229,0.012
	L162.927,93.805z M160.923,66.476c1.801,0,3.261,1.46,3.261,3.26s-1.46,3.26-3.261,3.26s-3.259-1.46-3.259-3.26
	S159.122,66.476,160.923,66.476z M158.652,66.99c-0.267,0.22-0.499,0.478-0.69,0.764l-2.468-1.269
	c0.147-0.391,0.233-0.813,0.233-1.256c0-1.966-1.6-3.565-3.565-3.565c-0.325,0-0.639,0.047-0.938,0.129l-6.5-16.226L158.652,66.99z
	 M142.8,38.602c1.8,0,3.26,1.459,3.26,3.26c0,1.8-1.46,3.26-3.26,3.26c-1.801,0-3.261-1.459-3.261-3.26
	C139.539,40.061,140.999,38.602,142.8,38.602z M140.309,39.315c-0.662,0.648-1.075,1.549-1.075,2.546
	c0,0.402,0.071,0.787,0.194,1.148l-4.183,1.983c-0.354-0.564-0.858-1.021-1.458-1.316l2.168-6.139
	c0.256,0.059,0.521,0.093,0.795,0.093c0.677,0,1.307-0.193,1.847-0.521L140.309,39.315z M136.75,30.806c1.8,0,3.26,1.459,3.26,3.26
	c0,1.801-1.46,3.26-3.26,3.26c-1.801,0-3.26-1.459-3.26-3.26C133.49,32.265,134.949,30.806,136.75,30.806z M133.877,31.961
	c-0.136,0.185-0.254,0.384-0.353,0.593l-7.99-2.679c0.05-0.239,0.078-0.486,0.078-0.74c0-1.966-1.599-3.565-3.566-3.565
	c-0.008,0-0.014,0.001-0.021,0.001l-0.335-2.756c0.56-0.134,1.066-0.398,1.489-0.761L133.877,31.961z M120.86,16.092
	c1.8,0,3.26,1.46,3.26,3.26c0,1.8-1.46,3.26-3.26,3.26c-1.8,0-3.26-1.46-3.26-3.26C117.6,17.552,119.06,16.092,120.86,16.092z
	 M117.498,20.527c0.487,1.389,1.809,2.39,3.362,2.39c0.007,0,0.015-0.001,0.022-0.001l0.334,2.756
	c-0.722,0.173-1.357,0.565-1.834,1.103l-5.07-3.544c0.274-0.505,0.43-1.082,0.43-1.695c0-0.129-0.007-0.256-0.021-0.382
	L117.498,20.527z M117.202,19.759l-2.664,0.601c-0.074-0.209-0.165-0.411-0.275-0.601H117.202z M111.176,18.276
	c1.801,0,3.261,1.459,3.261,3.26c0,1.8-1.46,3.26-3.261,3.26c-1.8,0-3.26-1.459-3.26-3.26
	C107.917,19.735,109.376,18.276,111.176,18.276z M108.09,19.759c-0.172,0.297-0.301,0.621-0.383,0.964l-4.387-0.508
	c-0.328-0.208-0.692-0.364-1.08-0.456H108.09z M100.602,19.759c-0.117,0.028-0.231,0.061-0.343,0.1l-0.861-0.1H100.602z
	 M101.421,19.966c1.8,0,3.26,1.46,3.26,3.261c0,1.8-1.46,3.26-3.26,3.26c-1.8,0-3.259-1.459-3.259-3.26
	C98.162,21.426,99.621,19.966,101.421,19.966z M95.823,20.164l3.258,0.378c-0.3,0.262-0.555,0.571-0.753,0.919l-2.558-1.093
	C95.79,20.301,95.807,20.233,95.823,20.164z M92.354,16.092c1.801,0,3.26,1.46,3.26,3.26c0,1.8-1.459,3.26-3.26,3.26
	s-3.261-1.46-3.261-3.26C89.093,17.552,90.553,16.092,92.354,16.092z M88.813,19.759c0.086,0.756,0.412,1.438,0.896,1.976
	l-4.024,4.562c-0.578-0.403-1.279-0.642-2.035-0.642c-0.002,0-0.003,0-0.004,0l-0.331-2.835c1.446-0.34,2.556-1.559,2.727-3.061
	H88.813z M82.503,16.092c1.801,0,3.261,1.46,3.261,3.26c0,1.8-1.46,3.26-3.261,3.26c-1.799,0-3.259-1.46-3.259-3.26
	C79.244,17.552,80.704,16.092,82.503,16.092z M78.963,19.759c0.204,1.774,1.712,3.158,3.54,3.158c0.002,0,0.003,0,0.004,0
	l0.33,2.836c-0.585,0.138-1.115,0.419-1.55,0.806l-5.755-5.151c0.337-0.477,0.562-1.04,0.632-1.648H78.963z M72.625,16.092
	c1.8,0,3.26,1.46,3.26,3.26c0,1.8-1.46,3.26-3.26,3.26c-1.801,0-3.261-1.46-3.261-3.26C69.364,17.552,70.824,16.092,72.625,16.092z
	 M66.325,19.9l2.772-0.062c0.111,0.814,0.498,1.542,1.065,2.085l-3.379,4.451c-0.531-0.316-1.151-0.501-1.813-0.501
	c-0.125,0-0.249,0.007-0.371,0.02l-0.658-2.955C65.237,22.488,66.195,21.313,66.325,19.9z M59.516,19.572
	c0-1.8,1.459-3.26,3.26-3.26c1.799,0,3.259,1.459,3.259,3.26s-1.46,3.26-3.259,3.26C60.975,22.832,59.516,21.372,59.516,19.572z
	 M60.3,22.133c0.642,0.621,1.514,1.005,2.476,1.005c0.125,0,0.249-0.007,0.371-0.02l0.657,2.955
	c-0.888,0.309-1.615,0.957-2.027,1.79l-3.232-1.157c0.061-0.26,0.096-0.53,0.096-0.809c0-0.711-0.212-1.374-0.573-1.931L60.3,22.133
	z M58.165,22.832l-0.614,0.505c-0.029-0.028-0.059-0.054-0.089-0.081L58.165,22.832z M55.075,22.638c1.8,0,3.26,1.46,3.26,3.26
	c0,1.8-1.46,3.26-3.26,3.26c-1.801,0-3.26-1.46-3.26-3.26C51.814,24.098,53.274,22.638,55.075,22.638z M51.625,26.781
	c0.031,0.123,0.069,0.244,0.113,0.361l-4.597,2.347L51.625,26.781z M52.107,27.87c0.639,0.959,1.73,1.593,2.968,1.593
	c0.383,0,0.751-0.062,1.098-0.175l2.779,6.097c-0.783,0.473-1.368,1.238-1.606,2.144L40.718,35.14
	c0.001-0.033,0.005-0.066,0.005-0.1c0-0.438-0.083-0.857-0.229-1.245L52.107,27.87z M33.897,35.04c0-1.8,1.46-3.26,3.26-3.26
	s3.26,1.46,3.26,3.26c0,1.8-1.46,3.26-3.26,3.26S33.897,36.84,33.897,35.04z M35.945,38.389c0.06,0.021,0.12,0.044,0.182,0.063
	l-2.659,14.711c-0.076-0.005-0.151-0.012-0.228-0.012c-1.966,0-3.566,1.599-3.566,3.565c0,0.52,0.115,1.013,0.315,1.458
	l-3.687,2.191c-0.248-0.324-0.547-0.605-0.89-0.829L35.945,38.389z M20.211,62.525c0-1.8,1.459-3.26,3.26-3.26
	c1.8,0,3.259,1.46,3.259,3.26s-1.459,3.26-3.259,3.26C21.67,65.786,20.211,64.326,20.211,62.525z M22.484,65.949
	c0.313,0.091,0.644,0.142,0.987,0.142c1.307,0,2.449-0.709,3.07-1.762l2.727,1.207c-0.104,0.335-0.161,0.691-0.161,1.061
	c0,0.583,0.143,1.131,0.392,1.618l-9.178,6.094c-0.275-0.327-0.609-0.603-0.984-0.813L22.484,65.949z M18.689,72.932l-0.104,0.249
	c-0.006-0.001-0.013-0.002-0.02-0.004L18.689,72.932z M14.338,76.605c0-1.801,1.459-3.26,3.26-3.26c1.8,0,3.26,1.459,3.26,3.26
	c0,1.8-1.46,3.26-3.26,3.26C15.797,79.865,14.338,78.405,14.338,76.605z M16.111,79.841c0.454,0.209,0.956,0.329,1.487,0.329
	c0.045,0,0.09-0.005,0.136-0.006l1.328,8.627c-0.941,0.257-1.728,0.89-2.188,1.728l-2.975-1.207
	c0.084-0.304,0.133-0.624,0.133-0.954c0-1.143-0.543-2.159-1.382-2.812L16.111,79.841z M7.207,88.357c0-1.801,1.46-3.258,3.26-3.258
	c1.8,0,3.26,1.458,3.26,3.258s-1.46,3.261-3.26,3.261C8.667,91.618,7.207,90.158,7.207,88.357z M7.207,98.154
	c0-1.799,1.46-3.258,3.26-3.258c1.8,0,3.26,1.459,3.26,3.258c0,1.801-1.46,3.261-3.26,3.261
	C8.667,101.415,7.207,99.955,7.207,98.154z M10.467,111.39c-1.8,0-3.26-1.459-3.26-3.26s1.46-3.261,3.26-3.261
	c1.8,0,3.26,1.46,3.26,3.261S12.267,111.39,10.467,111.39z M12.279,111.195c0.255-0.152,0.492-0.333,0.702-0.54l4.247,3.387
	c-0.344,0.547-0.546,1.191-0.546,1.887c0,1.966,1.6,3.564,3.565,3.564c0.042,0,0.081-0.004,0.121-0.006l2.142,14.301
	c-0.047,0.013-0.096,0.023-0.142,0.038L12.279,111.195z M23.437,140.487c-1.8,0-3.259-1.46-3.259-3.261
	c0-1.799,1.459-3.259,3.259-3.259c1.801,0,3.26,1.46,3.26,3.259C26.697,139.027,25.237,140.487,23.437,140.487z M25.805,139.885
	c0.732-0.651,1.197-1.602,1.197-2.658c0-1.114-0.515-2.111-1.32-2.766l3.2-5.022c0.286,0.14,0.591,0.242,0.913,0.302l-0.813,12.055
	c-0.554,0.025-1.076,0.174-1.535,0.427L25.805,139.885z M26.784,142.693c-0.031,0.027-0.061,0.054-0.091,0.083l-0.377-0.748
	L26.784,142.693z M29.763,148.86c0.041-0.006,0.083-0.011,0.123-0.019l0.259,0.775L29.763,148.86z M29.151,148.612
	c-1.8,0-3.26-1.46-3.26-3.261s1.46-3.261,3.26-3.261s3.26,1.46,3.26,3.261S30.952,148.612,29.151,148.612z M32.303,158.06
	c-1.801,0-3.26-1.46-3.26-3.261s1.459-3.261,3.26-3.261s3.26,1.46,3.26,3.261S34.104,158.06,32.303,158.06z M35.461,156.447
	c0.258-0.493,0.407-1.055,0.407-1.648c0-0.823-0.283-1.58-0.753-2.185l2.625-2.57c0.552,0.45,1.241,0.733,1.993,0.787l0.269,6.048
	c-0.85,0.135-1.599,0.569-2.137,1.195L35.461,156.447z M40.566,163.655c-1.801,0-3.26-1.46-3.26-3.259
	c0-1.801,1.459-3.261,3.26-3.261c1.8,0,3.26,1.46,3.26,3.261C43.826,162.195,42.366,163.655,40.566,163.655z M59.844,165.552
	l-3.477-1.005l3.491,0.823C59.851,165.43,59.847,165.492,59.844,165.552z M44.104,160.812c0.016-0.138,0.027-0.276,0.027-0.416
	c0-0.766-0.244-1.473-0.655-2.054l2.091-1.867c0.63,0.562,1.458,0.906,2.367,0.906c0.998,0,1.901-0.413,2.549-1.076l9.868,7.639
	c-0.121,0.199-0.223,0.409-0.303,0.632L44.104,160.812z M63.396,169.046c-1.8,0-3.26-1.459-3.26-3.258
	c0-1.801,1.459-3.261,3.26-3.261c1.801,0,3.26,1.46,3.26,3.261C66.657,167.587,65.197,169.046,63.396,169.046z M66.816,166.789
	c0.093-0.317,0.146-0.654,0.146-1.001c0-0.841-0.293-1.612-0.781-2.224l2.166-2.176c0.608,0.48,1.373,0.77,2.207,0.77
	c0.078,0,0.154-0.006,0.231-0.013l0.746,4.104c-0.883,0.268-1.62,0.87-2.067,1.659L66.816,166.789z M72.566,172.92
	c-1.801,0-3.26-1.46-3.26-3.261s1.459-3.261,3.26-3.261c1.8,0,3.259,1.46,3.259,3.261S74.367,172.92,72.566,172.92z M76.09,169.145
	c-0.079-0.548-0.282-1.059-0.583-1.496l2.125-1.846c0.635,0.583,1.477,0.941,2.403,0.941c1.699,0,3.123-1.196,3.478-2.789
	l36.628,3.869L76.09,169.145z M83.6,163.146c-0.004-0.465-0.098-0.908-0.265-1.316l3.879-2.131c0.646,0.909,1.707,1.505,2.904,1.505
	c1.479,0,2.75-0.904,3.29-2.19l28.211,8.148L83.6,163.146z M122.88,166.678l-29.249-8.449c0.033-0.192,0.053-0.388,0.053-0.589
	c0-0.195-0.02-0.386-0.05-0.572l5.224-1.479c0.535,1.295,1.81,2.21,3.296,2.21c1.172,0,2.212-0.572,2.862-1.449l17.882,10.29
	C122.892,166.651,122.885,166.665,122.88,166.678z M126.17,171.312c-1.801,0-3.261-1.46-3.261-3.261c0-1.799,1.46-3.259,3.261-3.259
	c1.799,0,3.259,1.46,3.259,3.259C129.429,169.853,127.969,171.312,126.17,171.312z M132.208,164.988l-2.955,1.282
	c-0.617-1.065-1.767-1.784-3.083-1.784c-0.099,0-0.194,0.007-0.291,0.016l-0.555-2.796c0.789-0.255,1.457-0.776,1.9-1.458
	l5.042,2.498c-0.136,0.377-0.214,0.782-0.214,1.204C132.052,164.311,132.107,164.658,132.208,164.988z M138.878,163.95
	c0,1.801-1.46,3.261-3.26,3.261c-1.801,0-3.259-1.46-3.259-3.261c0-1.8,1.458-3.258,3.259-3.258
	C137.418,160.692,138.878,162.15,138.878,163.95z M136.972,160.653c-0.418-0.171-0.875-0.268-1.354-0.268
	c-0.15,0-0.297,0.013-0.441,0.03l-0.682-2.798c1.359-0.504,2.332-1.81,2.332-3.342c0-0.384-0.063-0.755-0.177-1.103l3.86-1.764
	c0.253,0.415,0.586,0.775,0.981,1.057L136.972,160.653z M141.13,154.808l1.073-1.944c0.054,0.021,0.109,0.041,0.163,0.06
	L141.13,154.808z M146.817,149.566c0,1.801-1.459,3.261-3.26,3.261s-3.261-1.46-3.261-3.261c0-1.799,1.46-3.259,3.261-3.259
	S146.817,147.768,146.817,149.566z M145.546,146.609c-0.568-0.383-1.253-0.608-1.988-0.608c-0.051,0-0.101,0.007-0.152,0.009
	l-0.884-5.576c0.763-0.212,1.424-0.673,1.889-1.29l2.37,1.389c-0.194,0.441-0.305,0.929-0.305,1.438c0,0.939,0.366,1.79,0.959,2.427
	L145.546,146.609z M153.3,141.971c0,1.801-1.46,3.261-3.261,3.261s-3.26-1.46-3.26-3.261s1.459-3.259,3.26-3.259
	S153.3,140.17,153.3,141.971z M151.314,138.646c-0.396-0.152-0.825-0.24-1.275-0.24c-1.162,0-2.194,0.562-2.845,1.426l-2.37-1.389
	c0.195-0.441,0.306-0.927,0.306-1.438c0-0.764-0.244-1.471-0.654-2.052l15.412-13.746c0.115,0.105,0.237,0.206,0.368,0.294
	L151.314,138.646z M165.515,118.548c0,1.801-1.46,3.261-3.261,3.261c-1.799,0-3.259-1.46-3.259-3.261s1.46-3.258,3.259-3.258
	C164.055,115.29,165.515,116.747,165.515,118.548z M163.686,112.083c-1.801,0-3.26-1.46-3.26-3.261s1.459-3.259,3.26-3.259
	c1.799,0,3.259,1.458,3.259,3.259S165.484,112.083,163.686,112.083z"/>
</svg>
