<?xml version="1.0" encoding="utf-8"?>
<!-- Generator: Adobe Illustrator 16.0.0, SVG Export Plug-In . SVG Version: 6.00 Build 0)  -->
<!DOCTYPE svg PUBLIC "-//W3C//DTD SVG 1.1//EN" "http://www.w3.org/Graphics/SVG/1.1/DTD/svg11.dtd">
<svg version="1.1" id="Layer_1" xmlns="http://www.w3.org/2000/svg" xmlns:xlink="http://www.w3.org/1999/xlink" x="0px" y="0px"
	 width="290px" height="180px" viewBox="0 0 290 180" enable-background="new 0 0 290 180" xml:space="preserve">
<path d="M-176.031,163.497c0.565-0.489,3.31-0.391,5.61-0.209c0.62-0.754,1.831-2.03,3.267-2.458
	c0.862-0.256,2.309-0.117,3.707,0.132c0.556-0.471,1.47-1.068,2.715-1.249c1.284-0.188,3.897,0.209,5.789,0.556
	c-0.277-2.133-0.792-6.724-0.331-8.442c0.606-2.269,2.368-8.961,2.125-10.991c-0.203-1.695-0.828-7.135-1.028-8.883
	c-1.723-3.002-2.829-6.299-2.829-8.145c0-3.09,0.057-10.417,0.893-15.391c-0.251-0.786-0.493-1.655-0.705-2.597
	c-4.133,10.586-8.101,19.235-8.81,18.891c-0.815-0.394,4.282-21.541,6.271-30.303c0.616-2.707,1.268-5.748,1.881-8.684l-2.934-3.662
	c-0.765,2.961-2.699,10.159-5.223,17.465c-3.882,11.231-7.656,21.821-8.493,21.271s2.135-13.862,3.712-21.987
	c1.625-8.371,3.574-16.59,5.487-22.812c-0.321-0.455-0.634-0.907-0.926-1.335c-1.86-2.747-0.621-4.883,0-7.326
	c0.621-2.442,3.411-5.188,8.368-6.103c1.403-0.26,2.778-0.345,4.034-0.338c1.526-1.48,5.284-3.303,6.193-3.325
	c1.318-0.034,3.72,1.221,3.72,1.221s2.79,0.244,3.719,0.305c2.694,0.177,4.485,0.098,9.918,3.968
	c2.677,1.907,4.421,5.446,5.519,8.604c0.772,0.231,1.618,0.51,2.539,0.859c2.771,1.049,4.811,5.28,5.813,7.817
	c1.102,0.304,2.437,0.75,3.484,1.339c1.425,0.804,3.246,4.233,4.332,6.496c0.927,0.195,2.013,0.604,3.107,1.442
	c1.032,0.79,3.638,3.841,6.508,7.369c2.392,0.04,5.815,0.116,10.229,0.261c3.504,0.116,6.654,1.141,9.221,2.375
	c1.97-0.627,4.989-1.175,6.599-1.047c2.233,0.176,6.06,0.337,14.739,3.693c5.173,2.002,8.286,6.555,10.518,10.041
	c0.172-0.047,0.329-0.084,0.456-0.105c1.86-0.307,3.409,0.307,4.958,1.223c1.55,0.916,3.718,5.188,5.578,8.242
	c1.859,3.052,2.787,3.356,4.029,6.714c1.239,3.356,2.17,14.041,0.619,18.01c-0.824,2.111-3.314,4.392-5.469,6.067
	c2.538-0.646,5.546-1.338,7.46-1.554c3.188-0.359,3.423,0.562,2.331,1.842c2.447-0.648,6.387-1.52,7.49-0.725
	c0.593,0.427,0.404,0.974-0.07,1.502c2.553-0.338,6.607-0.801,7.625-0.51c1.02,0.291,1.389,0.896,1.053,1.562
	c2.352-0.319,5.621-0.487,4.109,1.414c-2.266,2.853-4.029,4.526-5.604,4.835c-1.572,0.312-7.428,0.061-8.877,0.186
	c-1.448,0.125-3.336,0.436-6.674,1.674c-3.336,1.242-7.095,1.41-7.095,1.41c-4.649,0-8.368-1.527-11.777-1.527
	c-3.355,0-10.3-0.014-11.405-6.122c-3.178,1.368-9.091,3.983-11.53,5.512c-2.457,1.541-8.134,4.183-14.13,5.771
	c3.128,0.397,6.459,1.51,8.026,4.259c4.09-0.093,11.812-0.244,12.594-0.063c0.871,0.202,1.32,1.422,1.458,1.869
	c1.115,0.051,2.092,0.186,2.445,0.488c0.959,0.826,1.803,2.34-0.045,2.96c1.421,0.78,2.75,1.983,1.557,3.487
	c-1.171,1.479-2.556,2.104-3.967,2.295c0.326,1.344,0.472,3.272-1.132,3.906c-1.573,0.621-2.835,0.806-6.359,0.683
	c-3.526-0.125-7.996-1.304-10.136-1.429c-2.14-0.123-4.973,0.869-6.107,0.373c-0.406-0.178-0.907-0.646-1.385-1.166
	c-1.066,0.041-2.189,0.067-3.273,0.067c-4.03,0-6.2-0.303-10.849-1.831c-4.647-1.523-8.367-3.355-10.538-6.714
	c-0.624-0.965-1.325-2.417-2.008-3.987c-2.168-0.64-4.368-1.201-5.43-1.201c-2.48,0-4.338,1.223-6.509,0
	c-0.621-0.351-1.603-1.358-2.681-2.608c-2.59,0.424-5.95,0.715-7.856-0.138c-1.961-0.881-4.33-3.571-5.99-5.703
	c0.047,2.591-1.011,5.059-2.28,5.794c-1.944,1.125-4.029,1.22-7.438,0c-2.454-0.88-4.739-1.591-6.524-1.81
	c-2.781,0.101-5.482,0.166-7.194,0.14c-4.282-0.062-4.91,0.063-8.814-0.185C-178.547,166.966-177.037,164.362-176.031,163.497z"/>
<path d="M136.717,32.467c-4.279-1.106-8.979,0.394-13.427-0.444c-5.683-1.07-6.595-3.23-9.071-8.089
	c-3.206-6.293-12.953-18.272-19.345-9.502c-1.862,2.555-5.391,6.939-5.88,10.088c-0.634,4.067,1.591,7.343,0.29,11.394
	c-1.617,5.039-4.783,8.622-7.523,13.171c-1.82,3.021-7.088,7.901-6.151,11.626c1.115,4.432,2.039,5.627-1.708,8.87
	c-3.609,3.124-3.972-0.467-7.76,0.057c-4.94,0.683-2.25,3.793-1.442,6.217c0.703,2.11-2.892,4.882-4.466,5.641
	c-1.582,0.761-5.608,0.205-7.4,0.216c-0.865,0.006-6.467-1.373-6.561-1.322c-1.277,0.679-2.54,1.382-3.841,2.014
	c-2.172,1.056-2.919,0.288-5.172,0.119c1.087,0.088-2.585,4.158-3.653,4.249c-1.535,0.13-5.516-2.291-4.411-0.355
	c-0.252-0.353-6.671,0.589-7.459,0.579c-1.863-0.025-2.07-1.15-3.822-1.031c-1.456,0.1-14.639,3.852-13.46,4.925
	c-0.22-0.2,16.69-7.49,15.349-2.17c0.347-1.374,7.805-0.348,9.702-1.457c-0.154,0.047-1.306,1.125-1.129,1.451
	c0.036,0.067-2.577,0.765-2.84,0.84c-0.744,0.35-6.427-0.308-4.358,2.036c1.847,0.839,4.622-2.439,6.207-1.387
	c1.155,0.767-1.125,4.544-0.271,5.342c-0.339-0.317-1.795-0.197-1.186,0.543c-0.937-1.136-2.392-0.667-3.338-1.572
	c0.331,0.316-0.918,2.791-0.952,3.312c1.801-0.051,3.174-0.678,3.401,1.59c0.181,1.802,0.039,1.273-1.058,2.425
	c-1.183,1.243,0.233,2.235-0.008,3.396c-1.272,1.304-3.512-0.606-3.73-1.808c-0.343-1.892,0.213-4.303-1.32-5.36
	c2.767-2.823,0.054-1.034-0.473-2.95c-0.739,1.396-1.702,0.695-1.204,2.788c-1.25,1.069,0.073-2.357,0.147-2.676
	c-0.643,0.28-1.042,0.766-1.199,1.454c0.658-2.675-4.113-0.671-5.195-0.608c-1.104-0.266-6.726-3.379-7.469-1.889
	c-2.873,0.043,1.009,2.997,1.685,3.485c1.996,1.44,5.039,2.078,5.409,4.707c0.345,2.447,1.705,3.798,4.027,4.546
	c1.587,0.512,6.055,1.681,5.415,4.122c-0.927,3.537-4.005,8.342-4.403,12.469c-0.198,2.057-1.811,5.844-2.931,7.624
	c-0.678,1.078-3.657,4.329-3.6,5.46c0.033,0.649,4.802,2.977,5.392,4.229c0.64,1.359,0.435,1.743,0.283,3.276
	c0.485,0.301,4.094,2.758,2.42,3.104c-2.547,0.526,0.189,3.346,0.584,5.259c0.359,1.735,2.233,8.306,2.034,8.826
	c1.19,0.741-0.265,2.034-0.152,2.985c0.222,1.854,3.17,2.578,4.291,3.647c0.873,0.831,0.339,2.649,1.623,3.137
	c0.552,0.209,3.734-0.503,3.721-0.52c0.373,2.308,3.082,2.18,5.104,2.601c1.479,0.307,2.962,0.616,4.456,0.846
	c1.079,0.166,2.556-1.368,3.188-0.971c3.896,2.444,4.031-0.296,6.843-3.033c1.23-1.198,0.201-1.957,2.273-2.26
	c2.731-0.398-1.083-1.664-1.106-1.72c-0.014-0.037,3.536-1.328,3.825-1.651c0.703-0.79-0.374-2.823,0.296-3.021
	c0.844-0.249,1.857,2.456,2.714,1.093c0.194-0.31,1.939-3.062,1.329-2.815c4.608-1.868,5.792-8.335,5.93-12.534
	c0.172-5.24-1.071-9.383-6.08-9.185c-0.705,0.027-0.807-0.031-0.041-0.194c1.468-0.312,2.942-0.508,4.486-0.319
	c1.043,1.086,1.115-2.515,1.121-2.905c0.031-2.272,0.3-4.778-0.167-7.007c0.033-0.441-0.664-1.21-0.741-1.693
	c-0.058-0.361,0.812-1.742,0.916-1.095c0.276-1.715,0.136-6.304,2.318-6.919c-0.568-0.481-2.657-1.689-2.877-2.497
	c0-0.467,2.489-0.887,2.291-0.259c0.269-0.865,1.282-1.462,1.826-2.132c0.767-0.944,0.106-2.054,0.732-3.172
	c1.14-2.035,2.712-1.487,1.246-3.949c-2.959-4.969,7.28-3.394,8.917-4.212c1.282-1.596,1.52-3.929,3.288-5.153
	c2.042-1.413,3.969-1.888,5.792-3.719c2.047-2.057,4.716-3.442,7.056-5.129c3.125-2.253,5.471-5.075,8.091-7.857
	c3.021-3.209,9.589-3.473,9.083-8.851c0.252-1.785,8.308-5.05,9.999-5.398c5.103-1.05,5.433-5.693,7.477-9.863
	c0.819-1.671,2.02-1.505,1.78-3.898c-0.146-1.461-0.671-2.92-0.022-4.318C131.662,45.216,139.91,33.078,136.717,32.467
	C133.254,31.571,137.238,32.566,136.717,32.467z"/>
</svg>
