<?xml version="1.0" encoding="utf-8"?>
<!-- Generator: Adobe Illustrator 16.0.0, SVG Export Plug-In . SVG Version: 6.00 Build 0)  -->
<!DOCTYPE svg PUBLIC "-//W3C//DTD SVG 1.1//EN" "http://www.w3.org/Graphics/SVG/1.1/DTD/svg11.dtd">
<svg version="1.1" id="Layer_1" xmlns="http://www.w3.org/2000/svg" xmlns:xlink="http://www.w3.org/1999/xlink" x="0px" y="0px"
	 width="50px" height="50px" viewBox="0 0 50 50" enable-background="new 0 0 50 50" xml:space="preserve">
<path d="M43.75,0H6.25C2.812,0,0,2.813,0,6.25v37.5C0,47.188,2.812,50,6.25,50h37.5c3.438,0,6.25-2.812,6.25-6.25V6.25
	C50,2.813,47.188,0,43.75,0z M16.667,37.5h-0.562H12.5V18.75h4.167V37.5z M14.665,16.667h-0.041c-2.055,0-3.382-1.711-3.382-3.479
	c0-1.807,1.367-3.458,3.463-3.458c2.091,0,3.381,1.571,3.422,3.377C18.124,14.875,16.792,16.667,14.665,16.667z M39.583,37.5h-4.167
	V26.607c0-2.474-1.953-3.629-4.167-3.629c-2.421,0-4.167,3.081-4.167,3.629V37.5h-4.167v-1.208c0,0,0-15.458,0-17.542h4.167v3.02
	c2.083-1.258,2.95-3.02,6.25-3.02c4.024,0,6.25,0,6.25,6.25V37.5z"/>
<path d="M20.636,28.071l-0.015-0.01l-0.016,0.011C20.615,28.071,20.625,28.071,20.636,28.071z"/>
</svg>
