<?xml version="1.0" encoding="utf-8"?>
<!-- Generator: Adobe Illustrator 16.0.0, SVG Export Plug-In . SVG Version: 6.00 Build 0)  -->
<!DOCTYPE svg PUBLIC "-//W3C//DTD SVG 1.1//EN" "http://www.w3.org/Graphics/SVG/1.1/DTD/svg11.dtd">
<svg version="1.1" id="Layer_1" xmlns="http://www.w3.org/2000/svg" xmlns:xlink="http://www.w3.org/1999/xlink" x="0px" y="0px"
	 width="290px" height="180px" viewBox="0 0 290 180" enable-background="new 0 0 290 180" xml:space="preserve">
<g>
	<path d="M27.868,74.797c-4.612,4.619-5.117,11.57-1.193,16.37c0.725,0.887,1.4,1.818,2.117,2.713
		c1.163,1.448,2.626,2.537,4.525,2.35c2.277-0.226,4.548-0.666,6.777-1.194c4.173-0.99,6.607-0.062,8.788,3.554
		c0.707,1.17,0.399,1.916-0.974,2.038c-1.013,0.091-2.097,0.14-3.06-0.126c-1.635-0.449-2.54,0.342-3.198,1.571
		c-0.396,0.741-0.832,1.659-0.729,2.43c0.299,2.22,0.713,4.448,1.357,6.589c0.933,3.1,2.389,6.049,2.258,9.417
		c-0.019,0.499,0.45,1.202,0.9,1.503c1.404,0.939,2.981,1.011,4.426,0.141c0.491-0.296,0.774-1.065,0.974-1.676
		c0.224-0.689,0.156-1.469,0.376-2.158c0.55-1.728,1.476-1.971,2.784-0.727c0.742,0.706,1.358,1.545,2.068,2.287
		c1.105,1.158,2.147,2.402,3.39,3.397c1.506,1.208,2.916,0.975,4.07-0.534c0.484-0.633,0.719-1.457,1.091-2.182
		c0.824-1.606,2.004-2.039,3.554-1.148c1.062,0.609,2.019,1.406,2.997,2.156c0.593,0.453,1.136,0.971,1.642,1.408
		c0.477-1.084,0.742-2.119,1.323-2.925c1.439-1.995,4.165-1.993,6.35-0.266c1.214,0.961,2.539,1.824,3.924,2.507
		c1.234,0.609,2.193,0.193,2.962-0.972c0.422-0.64,0.761-1.335,1.14-2.005c3.614,0.859,6.392-0.498,8.614-3.129
		c2.773-3.283,4.534-7.152,5.92-11.172c0.779-2.26-0.058-3.623-2.35-4.325c-0.82-0.25-1.681-0.383-2.532-0.507
		c-1.037-0.15-2.084-0.236-3.199-0.354c0.552-2.762,2.099-4.573,4.573-5.352c2.541-0.799,5.167-1.365,7.789-1.856
		c2.367-0.444,4.215-1.468,5.368-3.646c0.634-1.2,1.44-2.309,2.035-3.523c2.379-4.854,3.066-9.765,0.464-14.806
		c-0.616-1.195-1.054-2.507-1.409-3.81c-0.738-2.7-1.009-5.522,0.898-7.779c1.196-1.416,1.368-2.727,1.082-4.347
		c-0.13-0.727-0.115-1.48-0.243-2.209c-0.373-2.144-0.514-4.378-1.234-6.402c-1.807-5.067-4.471-9.705-7.906-13.867
		c-3.73-4.518-8.119-8.199-13.692-10.215c-4.437-1.604-9.078-2.296-13.771-2.614c-2.003-0.135-4.01-0.204-6.016-0.302
		c-2.875,0.217-5.751,0.435-8.627,0.652c-2.426,0.433-4.853,0.875-7.281,1.296c-6.803,1.179-13.041,3.687-18.56,7.878
		c-7.353,5.585-12.146,12.862-15.006,21.65c-2.201,6.763-1.259,12.938,1.955,19.024c0.438,0.832,1.039,0.835,1.582,0.387
		c0.469-0.387,0.886-1.003,1.022-1.589c0.23-0.991,0.243-2.035,0.31-3.061c0.118-1.845,0.136-3.7,0.334-5.537
		c0.158-1.471,0.722-2.875,2.117-3.577c1.487-0.745,1.971-1.897,1.853-3.42c-0.072-0.943-0.228-1.878-0.32-2.819
		c-0.045-0.455-0.033-0.916-0.049-1.435c2.588,0.9,3.3,3.225,2.596,4.994c-0.542,1.362-1.188,2.757-2.099,3.881
		c-1.624,2.001-1.969,4.166-1.507,6.582c0.094,0.484,0.188,0.973,0.229,1.464c0.397,4.933,1.249,3.814-2.217,7.893
		C28.802,73.867,28.332,74.333,27.868,74.797z M76.422,68.693c0.271-3.31,0.925-6.488,2.666-9.388
		c1.449-2.415,3.459-4.104,5.997-5.292c2.425-1.134,4.821-2.229,7.524-2.6c5.793-0.793,11.684,1.926,14.597,6.979
		c1.99,3.453,0.958,6.666-1.07,9.702c-2.646,3.961-6.473,5.789-11.146,6.051c-1.601,0.089-3.197,0.236-4.794,0.356
		c0.001,0.015,0.002,0.03,0.003,0.043c-2.375,0.18-4.753,0.517-7.125,0.479c-1.383-0.022-2.855-0.44-4.111-1.044
		C76.819,72.946,76.236,70.974,76.422,68.693z M78.45,79.833c1.168,1.351,2.224,2.87,2.983,4.479
		c0.709,1.499,1.074,3.192,1.373,4.84c0.155,0.854,0.446,1.966-0.89,2.479c-1.419,0.545-2.688,0.521-3.498-0.524
		c-0.641-0.826-1.171-1.802-1.498-2.797c-0.562-1.715-0.913-3.501-1.384-5.248c-0.364-1.343-0.776-2.674-1.206-4.146
		C75.932,78.184,77.402,78.621,78.45,79.833z M69.625,78.569c0.764,4.349,0.594,8.652-1.108,12.78
		c-0.237,0.574-1.379,0.995-2.135,1.053c-0.47,0.037-1.227-0.646-1.454-1.178c-0.325-0.761-0.423-1.686-0.371-2.525
		c0.184-2.95,0.899-5.773,2.58-8.247c0.554-0.812,1.376-1.441,2.076-2.155C69.35,78.388,69.487,78.478,69.625,78.569z M37.79,63.737
		c2.357-5.378,6.281-8.506,12.524-8.591c4.265-0.057,8.205,1.206,11.764,3.504c2.09,1.349,3.406,3.445,4.455,5.649
		c1.251,2.627,2.101,5.369,1.515,8.342c-0.502,2.552-1.664,3.746-4.212,4.139c-2.478,0.383-4.975,0.637-7.463,0.947
		c-3.864,0.352-7.695,0.6-11.49-0.631C39.181,75.246,35.552,68.844,37.79,63.737z"/>
	<path d="M135.218,114.901c-0.888-1.156-1.657-2.482-2.771-3.37c-1.657-1.323-3.519-0.81-4.607,1.015
		c-0.433,0.729-0.729,1.541-1.087,2.312c-1.667-0.709-2.113-1.733-1.395-3.305c0.272-0.593,0.661-1.137,1.021-1.687
		c0.966-1.479,2.016-2.912,2.899-4.439c0.875-1.513,0.74-3.029-0.249-4.53c-2.412-3.667-7.993-5.75-12.225-4.417
		c-2.708,0.853-4.517,2.246-4.666,5.865c-0.093,2.26-0.235,4.522-0.482,6.771c-0.336,3.062-1.378,5.774-4.268,7.378
		c-0.754,0.418-1.547,0.767-2.315,1.158c-15.485,7.922-30.957,15.869-46.462,23.756c-6.156,3.131-12.479,5.953-18.534,9.266
		c-2.563,1.402-4.491,1.302-6.954-0.031c-3.272-1.773-6.678-3.379-10.479-3.855c-4.401-0.548-8.398,2.426-8.814,6.662
		c-0.434,4.408,2.991,8.521,7.319,8.764c0.441,0.023,0.904-0.029,1.335-0.137c2.93-0.733,3.785-0.113,3.9,2.878
		c0.017,0.452-0.059,0.909-0.016,1.357c0.09,0.938,0.124,1.899,0.375,2.796c0.299,1.071,1.072,1.775,2.26,1.754
		c3.626-0.064,6.869-1.166,9.586-3.638c0.746-0.681,1.341-1.374,1.087-2.552c-0.149-0.698-0.021-1.479,0.089-2.207
		c0.631-4.177,3.206-6.971,6.714-8.945c3.646-2.054,7.346-4.036,11.118-5.85c9.931-4.77,19.922-9.414,29.875-14.142
		c6.309-2.996,12.624-5.983,18.865-9.12c2.152-1.082,4.035-2.691,6.131-3.908c2.639-1.53,4.421-1.122,6.365,1.229
		c2.574,3.109,7.325,4.51,11.087,3.109c3.015-1.122,5.031-3.295,6.02-6.387c-0.062-0.822-0.124-1.644-0.187-2.464
		C135.577,115.626,135.459,115.214,135.218,114.901z"/>
	<path d="M16.833,131.665c3.926,0.657,7.373-0.578,10.514-2.915c0.454-0.339,1.212-0.583,1.733-0.462
		c3.678,0.855,7.377,1.658,10.979,2.776c6.277,1.947,12.437,4.312,19.008,5.161c2.862,0.37,5.496-0.023,7.717-2.724
		c-1.553-0.728-2.916-1.612-4.411-2.027c-6.093-1.69-12.24-3.187-18.338-4.861c-2.486-0.681-5.006-1.405-7.315-2.519
		c-2.993-1.443-3.553-4.024-1.89-6.91c2.104-3.65,0.846-7.647-2.992-9.376c-2.351-1.06-4.707-0.938-7.05,0.114
		c-0.699,0.312-1.443,0.562-2.191,0.729c-1.422,0.316-1.935,1.055-1.553,2.499c0.251,0.954,0.601,1.88,0.869,2.827
		c0.431,1.523-0.135,2.154-1.74,2.033c-1.064-0.078-2.146-0.217-3.198-0.112c-3.372,0.341-6.264,1.442-7.27,5.157
		c0.062,0.822,0.124,1.643,0.187,2.465c0.312,0.881,0.657,1.751,0.928,2.645C11.734,129.2,13.695,131.143,16.833,131.665z"/>
	<path d="M123.143,144.796c-0.016-0.334-0.3-0.667-0.492-0.981c-3.108-5.067-10.104-6.605-15.038-3.224
		c-2.75,1.886-5.695,2.412-8.922,1.843c-3.944-0.696-7.48-2.479-11.051-4.146c-1.278-0.598-2.433-0.668-3.643-0.061
		c-1.607,0.804-3.189,1.655-5.04,2.624c1.111,0.79,2.039,1.754,3.171,2.198c4.083,1.607,8.184,3.215,12.379,4.478
		c2.658,0.801,4.211,2.266,4.694,4.919c0.419,2.305,0.688,4.642,1.178,6.933c0.618,2.884,2.181,4.309,5.116,4.458
		c2.199,0.112,4.468,0.105,6.616-0.312c2.052-0.398,4.189-1.085,5.928-2.205c2.447-1.576,3.051-4.819,2.022-7.909
		c-1.069-3.21-3.719-5.375-6.733-5.503c-0.393-0.018-0.787-0.053-1.21-0.079c0.391-1.137,0.972-1.444,2.352-1.122
		c2.001,0.467,3.96,1.137,5.976,1.497c0.831,0.147,2.202,0.001,2.544-0.523C123.448,146.978,123.189,145.776,123.143,144.796z"/>
</g>
</svg>
