<?xml version="1.0" encoding="utf-8"?>
<!-- Generator: Adobe Illustrator 16.0.0, SVG Export Plug-In . SVG Version: 6.00 Build 0)  -->
<!DOCTYPE svg PUBLIC "-//W3C//DTD SVG 1.1//EN" "http://www.w3.org/Graphics/SVG/1.1/DTD/svg11.dtd">
<svg version="1.1" id="Layer_1" xmlns="http://www.w3.org/2000/svg" xmlns:xlink="http://www.w3.org/1999/xlink" x="0px" y="0px"
	 width="290px" height="180px" viewBox="0 0 290 180" enable-background="new 0 0 290 180" xml:space="preserve">
<g>
	<polygon points="154.588,104.647 154.588,101.212 184.462,95.386 184.462,67.901 95.435,76.118 95.435,97.179 109.326,104.647 	"/>
	<path d="M214.153,96.133l-58.521,12.847H70.489l-60.348,16.133c-3.555,1.436-4.733,8.597,0,8.597l204.044,0.365L214.153,96.133z"/>
	<path d="M54.954,137.69c-7.246,0.055-13.081,5.963-13.045,13.21c0.036,7.245,5.931,13.096,13.177,13.078
		c7.247-0.02,13.111-5.897,13.111-13.145v-0.131C68.125,143.456,62.201,137.635,54.954,137.69z"/>
	<path d="M84.54,137.69c-7.246,0.055-13.082,5.963-13.045,13.21c0.037,7.245,5.931,13.096,13.178,13.078
		c7.247-0.018,13.111-5.897,13.111-13.145l0-0.131C97.709,143.456,91.786,137.635,84.54,137.69z"/>
	<path d="M100.561,150.9c0.037,7.245,5.931,13.096,13.176,13.078c7.247-0.02,13.112-5.897,13.112-13.145v-0.131
		c-0.074-7.246-5.997-13.066-13.243-13.013C106.359,137.743,100.524,143.653,100.561,150.9z"/>
	<path d="M143.364,137.69c-7.245,0.055-13.082,5.963-13.045,13.21c0.037,7.245,5.93,13.096,13.176,13.078
		c7.245-0.018,13.111-5.897,13.111-13.145v-0.131C156.533,143.456,150.609,137.635,143.364,137.69z"/>
	<polygon points="94.231,81.488 11.547,60.263 9.369,68.693 91.293,92.857 	"/>
	<path d="M206.308,137.907c1.845,7.943,3.436,13.307-8.052,18.745c-9.401,4.451-19.339,9.753-20.888,10.075l-126.413-0.021
		c-1.55-0.32-11.467-5.642-20.869-10.093c-11.486-5.44-9.915-10.803-8.071-18.747l-6.128,0.279
		c-3.413,8.491-0.571,16.261,8.812,22.011c10.573,6.48,23.278,12.723,26.957,12.818l125.011,0.04
		c3.68-0.095,16.386-6.336,26.957-12.818c9.383-5.75,12.226-13.539,8.812-22.029L206.308,137.907z"/>
	<path d="M159.844,151.588c0.037,7.246,5.932,13.097,13.178,13.078c7.247-0.017,13.111-5.897,13.111-13.145v-0.132
		c-0.073-7.246-5.996-13.065-13.243-13.011C165.646,138.432,159.81,144.341,159.844,151.588z"/>
	<path d="M189.374,145.451c0.02,4.131,3.379,7.466,7.51,7.455c4.13-0.01,7.475-3.361,7.475-7.493v-0.075
		c-0.042-4.13-3.42-7.446-7.55-7.416C192.678,137.953,189.352,141.319,189.374,145.451z"/>
	<path d="M31.294,137.922c-4.131,0.031-7.457,3.399-7.436,7.529c0.021,4.131,3.38,7.466,7.51,7.455
		c4.131-0.01,7.474-3.361,7.474-7.493v-0.075C38.801,141.206,35.425,137.89,31.294,137.922z"/>
</g>
</svg>
