<?xml version="1.0" encoding="utf-8"?>
<!-- Generator: Adobe Illustrator 16.0.0, SVG Export Plug-In . SVG Version: 6.00 Build 0)  -->
<!DOCTYPE svg PUBLIC "-//W3C//DTD SVG 1.1//EN" "http://www.w3.org/Graphics/SVG/1.1/DTD/svg11.dtd">
<svg version="1.1" id="Layer_1" xmlns="http://www.w3.org/2000/svg" xmlns:xlink="http://www.w3.org/1999/xlink" x="0px" y="0px"
	 width="290px" height="180px" viewBox="0 0 290 180" enable-background="new 0 0 290 180" xml:space="preserve">
<g>
	<path d="M190.201,98.509c-0.569,3.821-1.067,7.654-1.728,11.46c-0.689,3.978-0.757,3.965-4.67,2.979
		c-1.346-0.34-2.688-0.688-4.04-0.999c-1.403-0.323-1.846-1.084-1.522-2.531c1.633-7.326,2.278-14.742,1.574-22.225
		c-0.335-3.561-0.936-7.1-1.503-10.633c-0.33-2.061-0.215-2.365,1.852-2.893c1.791-0.457,3.603-0.844,5.38-1.35
		c1.509-0.43,2.336,0.032,2.573,1.597c0.57,3.769,1.157,7.534,1.745,11.3c0.096,0.619,0.226,1.231,0.339,1.846
		C190.201,90.875,190.201,94.691,190.201,98.509z"/>
	<path d="M135.888,153.184c0-2.253,0-4.368,0-6.612c-3.035,0-5.884,0-8.926,0c0,2.191,0,4.305,0,6.542c-3.271,0-6.35,0-9.595,0
		c0-2.146,0-4.26,0-6.522c-3.062,0-5.964,0-9.01,0c0,2.162,0,4.28,0,6.525c-3.28,0-6.419,0-9.708,0c0-2.195,0-4.313,0-6.661
		c-2.838,0-5.535-0.036-8.228,0.056c-0.276,0.009-0.733,0.771-0.754,1.201c-0.086,1.773-0.036,3.556-0.036,5.431
		c-3.215,0-6.258,0-9.55,0c0-2.15,0-4.314,0-6.585c-3.051,0-5.856,0-8.922,0c0,2.146,0,4.298,0,6.646
		c-3.184-0.179-6.103-0.329-9.021-0.512c-4.341-0.271-4.342-0.28-5.645-4.44c-0.429-1.374-0.87-2.746-1.266-4.129
		c-1.447-5.046-3.408-9.764-6.315-14.262c-7.254-11.223-10.47-23.769-9.51-37.08c0.797-11.078,4.71-21.302,11.329-30.244
		c3.312-4.477,4.661-9.293,4.877-14.652c0.072-1.788,0.228-3.574,0.417-5.353c0.268-2.523,1.196-3.34,3.687-3.348
		c2.371-0.007,4.742-0.018,7.111,0.005c1.895,0.017,2.67,0.734,2.695,2.579c0.029,2.138,0.073,4.285-0.079,6.414
		c-0.225,3.131-1.5,5.892-3.354,8.403c-3.603,4.879-6.993,9.933-10.848,14.604c-4.15,5.029-6.083,10.817-6.875,17.077
		c-1.916,15.153,1.407,29.04,10.641,41.302c2.278,3.025,5.086,5.66,7.75,8.379c0.527,0.538,1.503,0.901,2.273,0.902
		c22.953,0.046,45.906,0.046,68.858,0c0.773,0,1.718-0.354,2.295-0.867c10.523-9.349,16.732-21.001,18.498-34.987
		c0.969-7.663,0.449-15.234-1.858-22.602c-0.71-2.268-1.857-4.492-3.224-6.442c-3.979-5.673-8.01-11.326-12.323-16.746
		c-3.864-4.854-4.121-10.361-3.785-16.084c0.073-1.271,0.977-1.92,2.25-1.928c2.776-0.016,5.551-0.047,8.326,0.012
		c1.666,0.036,2.642,1.11,2.85,3.107c0.298,2.872,0.591,5.748,0.742,8.628c0.194,3.682,1.29,6.986,3.501,9.957
		c6.9,9.272,11.196,19.669,12.348,31.146c0.911,9.069-0.638,17.946-3.82,26.507c-2.062,5.549-4.85,10.707-8.301,15.518
		c-0.557,0.776-0.986,1.689-1.28,2.604c-1.504,4.658-2.982,9.326-4.381,14.018c-0.418,1.398-1.166,1.919-2.606,1.958
		C143.434,152.748,139.758,152.988,135.888,153.184z"/>
	<path d="M111.402,75.264c-0.001,6.765,0.031,13.531-0.015,20.295c-0.023,3.459-2.105,6.326-5.237,7.458
		c-3.082,1.113-6.681,0.338-8.598-2.345c-1.047-1.465-1.902-3.445-1.922-5.205c-0.156-13.528-0.113-27.059-0.07-40.589
		c0.015-4.527,3.511-7.997,7.874-8.019c4.429-0.023,7.927,3.488,7.958,8.111C111.436,61.734,111.403,68.499,111.402,75.264z"/>
	<path d="M16.744,92.87c-0.004-6.319,0.669-12.563,2.053-18.731c0.455-2.028,0.802-2.24,2.883-1.728
		c1.85,0.455,3.689,0.954,5.547,1.371c1.347,0.303,1.81,1.029,1.508,2.381c-2.482,11.107-2.486,22.223-0.009,33.33
		c0.3,1.341-0.109,2.109-1.448,2.429c-1.965,0.47-3.929,0.944-5.879,1.471c-1.485,0.399-2.253-0.068-2.586-1.616
		C17.476,105.542,16.732,99.249,16.744,92.87z"/>
	<path d="M32.268,122.682c0.38,0.421,0.965,0.824,1.216,1.38c4.294,9.495,10.222,17.813,17.841,24.922
		c0.941,0.879,1.012,1.723,0.128,2.689c-1.441,1.578-2.859,3.18-4.263,4.794c-0.881,1.012-1.723,0.948-2.662,0.072
		c-8.692-8.108-15.468-17.583-20.318-28.437c-0.563-1.261-0.281-2.074,1.037-2.591c1.934-0.761,3.838-1.598,5.758-2.395
		C31.322,122.986,31.653,122.894,32.268,122.682z"/>
	<path d="M161.086,157.397c-0.497-0.362-1.009-0.627-1.376-1.022c-1.337-1.441-2.571-2.979-3.947-4.379
		c-1.223-1.243-1.06-2.185,0.17-3.333c6.482-6.054,11.723-13.055,15.761-20.952c0.604-1.182,1.177-2.382,1.713-3.597
		c0.51-1.158,1.242-1.576,2.473-1.035c1.958,0.856,3.933,1.675,5.915,2.471c1.237,0.497,1.5,1.31,0.976,2.483
		c-4.869,10.912-11.675,20.438-20.433,28.565C162.015,156.898,161.586,157.084,161.086,157.397z"/>
	<path d="M161.031,28.257c0.533,0.352,1,0.576,1.362,0.912c8.726,8.08,15.481,17.571,20.341,28.419
		c0.564,1.257,0.298,2.081-1.013,2.604c-1.933,0.769-3.849,1.575-5.755,2.404c-1.286,0.559-2.057,0.142-2.608-1.094
		c-4.202-9.41-10.092-17.625-17.609-24.666c-1.071-1.004-1.146-1.866-0.142-2.94c1.382-1.477,2.678-3.034,4.044-4.526
		C160.021,28.965,160.51,28.67,161.031,28.257z"/>
	<path d="M32.223,63.074c-1.224-0.502-2.18-0.894-3.136-1.289c-1.228-0.507-2.441-1.054-3.686-1.514
		c-1.464-0.54-1.879-1.446-1.106-2.818c2.688-4.775,5.011-9.813,8.185-14.241c3.48-4.855,7.703-9.189,11.702-13.661
		c1.447-1.619,1.936-1.502,3.346,0.06c1.315,1.459,2.592,2.956,3.916,4.407c0.876,0.959,0.84,1.794-0.113,2.684
		c-7.616,7.113-13.542,15.436-17.843,24.928C33.236,62.183,32.658,62.588,32.223,63.074z"/>
	<path d="M103.524,114.162c4.358,0.025,7.926,3.66,7.874,8.019c-0.052,4.352-3.722,7.923-8.059,7.843
		c-4.28-0.078-7.792-3.659-7.791-7.941C95.551,117.724,99.166,114.136,103.524,114.162z"/>
</g>
</svg>
