<?xml version="1.0" encoding="utf-8"?>
<!-- Generator: Adobe Illustrator 16.0.0, SVG Export Plug-In . SVG Version: 6.00 Build 0)  -->
<!DOCTYPE svg PUBLIC "-//W3C//DTD SVG 1.1//EN" "http://www.w3.org/Graphics/SVG/1.1/DTD/svg11.dtd">
<svg version="1.1" id="Layer_1" xmlns="http://www.w3.org/2000/svg" xmlns:xlink="http://www.w3.org/1999/xlink" x="0px" y="0px"
	 width="50px" height="50px" viewBox="0.5 25 50 50" enable-background="new 0.5 25 50 50" xml:space="preserve">
<path d="M44.248,25H6.75c-3.437,0-6.25,2.813-6.25,6.25v37.5C0.5,72.188,3.313,75,6.75,75h37.498c3.438,0,6.25-2.812,6.25-6.25
	v-37.5C50.498,27.813,47.686,25,44.248,25z M42.165,41.667c-0.313,0.875-4.167,4.167-4.167,4.167
	c0.366,4.312-1.306,6.729-1.896,8.047c-0.586,1.316-3.491,7.121-11.702,9.435c-8.215,2.31-14.612-2.36-14.612-2.36
	c5.762,0.729,9.392-2.675,9.392-2.675c-4.899-0.454-5.852-4.492-5.852-4.492c2.087,0.321,2.633-0.226,2.633-0.226
	c-5.309-1.588-4.946-6.353-4.946-6.353c2.177,1.046,2.767,0.635,2.767,0.635c-4.763-3.855-1.861-8.571-1.861-8.571
	c6.218,7.256,13.293,6.805,13.293,6.805c-0.179-1.577-0.179-5.778,3.992-7.471c4.191-1.701,6.938,0.899,6.938,0.899
	c1.68-0.106,6.022-2.006,6.022-2.006c-0.912,2.547-4.611,4.657-4.611,4.657C39.051,42.053,42.165,41.667,42.165,41.667z"/>
</svg>
