<?xml version="1.0" encoding="utf-8"?>
<!-- Generator: Adobe Illustrator 16.0.0, SVG Export Plug-In . SVG Version: 6.00 Build 0)  -->
<!DOCTYPE svg PUBLIC "-//W3C//DTD SVG 1.1//EN" "http://www.w3.org/Graphics/SVG/1.1/DTD/svg11.dtd">
<svg version="1.1" id="Layer_1" xmlns="http://www.w3.org/2000/svg" xmlns:xlink="http://www.w3.org/1999/xlink" x="0px" y="0px"
	 width="290px" height="180px" viewBox="0 0 290 180" enable-background="new 0 0 290 180" xml:space="preserve">
<path d="M4.969,138.83c0.565-0.489,3.31-0.39,5.61-0.209c0.62-0.754,1.831-2.03,3.267-2.458c0.862-0.256,2.309-0.117,3.707,0.132
	c0.556-0.471,1.47-1.068,2.715-1.249c1.284-0.188,3.897,0.209,5.789,0.555c-0.277-2.132-0.792-6.723-0.331-8.442
	c0.606-2.269,2.368-8.961,2.125-10.991c-0.203-1.696-0.828-7.135-1.028-8.883c-1.723-3.002-2.829-6.298-2.829-8.145
	c0-3.089,0.057-10.417,0.893-15.39c-0.251-0.786-0.493-1.655-0.705-2.597c-4.133,10.586-8.101,19.235-8.81,18.891
	c-0.815-0.394,4.282-21.541,6.271-30.303c0.616-2.707,1.268-5.748,1.881-8.684l-2.934-3.662c-0.765,2.961-2.699,10.159-5.223,17.465
	c-3.882,11.232-7.656,21.822-8.493,21.271c-0.837-0.551,2.135-13.862,3.712-21.988c1.625-8.37,3.574-16.59,5.487-22.812
	c-0.321-0.455-0.634-0.907-0.926-1.335c-1.86-2.747-0.621-4.883,0-7.326c0.621-2.442,3.411-5.188,8.368-6.103
	c1.403-0.26,2.778-0.345,4.034-0.338c1.526-1.48,5.284-3.303,6.193-3.325c1.318-0.034,3.72,1.221,3.72,1.221s2.79,0.244,3.719,0.305
	c2.694,0.177,4.485,0.098,9.918,3.968c2.677,1.907,4.421,5.446,5.519,8.604c0.772,0.231,1.618,0.51,2.539,0.859
	c2.771,1.049,4.811,5.28,5.813,7.817c1.102,0.304,2.437,0.75,3.484,1.339c1.425,0.804,3.246,4.233,4.332,6.496
	c0.927,0.195,2.013,0.604,3.107,1.442c1.032,0.79,3.638,3.841,6.508,7.369c2.392,0.04,5.815,0.116,10.229,0.261
	c3.504,0.116,6.654,1.141,9.221,2.375c1.97-0.627,4.989-1.175,6.599-1.047c2.233,0.176,6.06,0.337,14.739,3.694
	c5.173,2.001,8.286,6.554,10.518,10.041c0.172-0.048,0.329-0.085,0.456-0.106c1.86-0.306,3.409,0.307,4.958,1.222
	c1.55,0.916,3.718,5.188,5.578,8.243c1.859,3.051,2.788,3.356,4.03,6.714c1.239,3.356,2.17,14.041,0.619,18.009
	c-0.824,2.112-3.315,4.392-5.469,6.068c2.538-0.646,5.546-1.338,7.46-1.554c3.188-0.359,3.422,0.562,2.331,1.842
	c2.447-0.649,6.386-1.519,7.49-0.725c0.593,0.427,0.404,0.974-0.07,1.502c2.552-0.337,6.607-0.801,7.625-0.51
	c1.019,0.292,1.389,0.897,1.052,1.562c2.352-0.319,5.622-0.487,4.11,1.414c-2.266,2.853-4.029,4.527-5.603,4.835
	c-1.573,0.312-7.428,0.061-8.877,0.185c-1.449,0.125-3.337,0.436-6.674,1.674c-3.336,1.243-7.095,1.411-7.095,1.411
	c-4.649,0-8.368-1.528-11.777-1.528c-3.355,0-10.3-0.014-11.405-6.122c-3.178,1.369-9.091,3.983-11.53,5.512
	c-2.457,1.541-8.134,4.183-14.13,5.771c3.128,0.397,6.459,1.509,8.026,4.258c4.09-0.093,11.812-0.244,12.594-0.063
	c0.871,0.202,1.32,1.421,1.458,1.869c1.115,0.05,2.092,0.185,2.445,0.488c0.959,0.827,1.803,2.34-0.045,2.96
	c1.421,0.78,2.75,1.984,1.557,3.488c-1.171,1.479-2.556,2.103-3.967,2.294c0.326,1.344,0.472,3.273-1.132,3.906
	c-1.573,0.621-2.835,0.806-6.359,0.683c-3.526-0.125-7.996-1.303-10.136-1.428c-2.14-0.123-4.973,0.868-6.107,0.373
	c-0.406-0.178-0.907-0.646-1.385-1.167c-1.066,0.042-2.189,0.068-3.273,0.068c-4.03,0-6.2-0.303-10.849-1.831
	c-4.647-1.524-8.367-3.355-10.538-6.714c-0.624-0.965-1.325-2.417-2.008-3.988c-2.168-0.639-4.368-1.2-5.43-1.2
	c-2.48,0-4.338,1.222-6.509,0c-0.621-0.351-1.603-1.359-2.681-2.609c-2.59,0.424-5.95,0.715-7.856-0.137
	c-1.961-0.881-4.33-3.572-5.99-5.704c0.047,2.591-1.011,5.059-2.28,5.794c-1.944,1.125-4.029,1.22-7.438,0
	c-2.454-0.88-4.739-1.59-6.524-1.81c-2.781,0.101-5.482,0.166-7.194,0.14c-4.282-0.061-4.91,0.064-8.814-0.184
	C2.453,142.299,3.963,139.696,4.969,138.83z"/>
</svg>
